<svg width="500" height="313" viewBox="0 0 500 313" fill="none" xmlns="http://www.w3.org/2000/svg">
<g filter="url(#filter0_i_85_871)">
<rect width="500" height="313" rx="20" fill="#645F5F"/>
</g>
<rect x="0.5" y="0.5" width="499" height="312" rx="19.5" stroke="#645F5F"/>
<path d="M30.9539 240.696H25.3379V244.344C25.5833 244.003 25.9459 243.725 26.4259 243.512C26.9059 243.288 27.4233 243.176 27.9779 243.176C28.8633 243.176 29.5833 243.363 30.1379 243.736C30.6926 244.099 31.0873 244.573 31.3219 245.16C31.5673 245.736 31.6899 246.349 31.6899 247C31.6899 247.768 31.5459 248.456 31.2579 249.064C30.9699 249.672 30.5273 250.152 29.9299 250.504C29.3433 250.856 28.6126 251.032 27.7379 251.032C26.6179 251.032 25.7113 250.744 25.0179 250.168C24.3246 249.592 23.9033 248.824 23.7539 247.864H25.1779C25.3166 248.472 25.6099 248.947 26.0579 249.288C26.5059 249.629 27.0713 249.8 27.7539 249.8C28.5966 249.8 29.2313 249.549 29.6579 249.048C30.0846 248.536 30.2979 247.864 30.2979 247.032C30.2979 246.2 30.0846 245.56 29.6579 245.112C29.2313 244.653 28.6019 244.424 27.7699 244.424C27.2046 244.424 26.7086 244.563 26.2819 244.84C25.8659 245.107 25.5619 245.475 25.3699 245.944H23.9939V239.416H30.9539V240.696ZM33.6248 245.096C33.6248 243.261 33.9235 241.832 34.5208 240.808C35.1181 239.773 36.1635 239.256 37.6568 239.256C39.1395 239.256 40.1795 239.773 40.7768 240.808C41.3741 241.832 41.6728 243.261 41.6728 245.096C41.6728 246.963 41.3741 248.413 40.7768 249.448C40.1795 250.483 39.1395 251 37.6568 251C36.1635 251 35.1181 250.483 34.5208 249.448C33.9235 248.413 33.6248 246.963 33.6248 245.096ZM40.2328 245.096C40.2328 244.168 40.1688 243.384 40.0408 242.744C39.9235 242.093 39.6728 241.571 39.2888 241.176C38.9155 240.781 38.3715 240.584 37.6568 240.584C36.9315 240.584 36.3768 240.781 35.9928 241.176C35.6195 241.571 35.3688 242.093 35.2408 242.744C35.1235 243.384 35.0648 244.168 35.0648 245.096C35.0648 246.056 35.1235 246.861 35.2408 247.512C35.3688 248.163 35.6195 248.685 35.9928 249.08C36.3768 249.475 36.9315 249.672 37.6568 249.672C38.3715 249.672 38.9155 249.475 39.2888 249.08C39.6728 248.685 39.9235 248.163 40.0408 247.512C40.1688 246.861 40.2328 246.056 40.2328 245.096ZM51.0477 240.696H45.4317V244.344C45.677 244.003 46.0397 243.725 46.5197 243.512C46.9997 243.288 47.517 243.176 48.0717 243.176C48.957 243.176 49.677 243.363 50.2317 243.736C50.7864 244.099 51.181 244.573 51.4157 245.16C51.661 245.736 51.7837 246.349 51.7837 247C51.7837 247.768 51.6397 248.456 51.3517 249.064C51.0637 249.672 50.621 250.152 50.0237 250.504C49.437 250.856 48.7064 251.032 47.8317 251.032C46.7117 251.032 45.805 250.744 45.1117 250.168C44.4184 249.592 43.997 248.824 43.8477 247.864H45.2717C45.4104 248.472 45.7037 248.947 46.1517 249.288C46.5997 249.629 47.165 249.8 47.8477 249.8C48.6904 249.8 49.325 249.549 49.7517 249.048C50.1784 248.536 50.3917 247.864 50.3917 247.032C50.3917 246.2 50.1784 245.56 49.7517 245.112C49.325 244.653 48.6957 244.424 47.8637 244.424C47.2984 244.424 46.8024 244.563 46.3757 244.84C45.9597 245.107 45.6557 245.475 45.4637 245.944H44.0877V239.416H51.0477V240.696ZM53.3346 240.76V239.432H56.3426V251H54.8706V240.76H53.3346ZM65.1636 244.52V245.752H58.7796V244.52H65.1636ZM67.4801 249.832C68.8347 248.744 69.8961 247.853 70.6641 247.16C71.4321 246.456 72.0774 245.725 72.6001 244.968C73.1334 244.2 73.4001 243.448 73.4001 242.712C73.4001 242.019 73.2294 241.475 72.8881 241.08C72.5574 240.675 72.0187 240.472 71.2721 240.472C70.5467 240.472 69.9814 240.701 69.5761 241.16C69.1814 241.608 68.9681 242.211 68.9361 242.968H67.5281C67.5707 241.773 67.9334 240.851 68.6161 240.2C69.2987 239.549 70.1787 239.224 71.2561 239.224C72.3547 239.224 73.2241 239.528 73.8641 240.136C74.5147 240.744 74.8401 241.581 74.8401 242.648C74.8401 243.533 74.5734 244.397 74.0401 245.24C73.5174 246.072 72.9201 246.808 72.2481 247.448C71.5761 248.077 70.7174 248.813 69.6721 249.656H75.1761V250.872H67.4801V249.832ZM78.7312 247.896C78.8379 248.504 79.0832 248.973 79.4672 249.304C79.8619 249.635 80.3899 249.8 81.0512 249.8C81.9365 249.8 82.5872 249.453 83.0032 248.76C83.4299 248.067 83.6325 246.899 83.6112 245.256C83.3872 245.736 83.0139 246.115 82.4912 246.392C81.9685 246.659 81.3872 246.792 80.7472 246.792C80.0325 246.792 79.3925 246.648 78.8272 246.36C78.2725 246.061 77.8352 245.629 77.5152 245.064C77.1952 244.499 77.0352 243.816 77.0352 243.016C77.0352 241.875 77.3659 240.957 78.0272 240.264C78.6885 239.56 79.6272 239.208 80.8432 239.208C82.3365 239.208 83.3819 239.693 83.9792 240.664C84.5872 241.635 84.8912 243.08 84.8912 245C84.8912 246.344 84.7685 247.453 84.5232 248.328C84.2885 249.203 83.8832 249.869 83.3072 250.328C82.7419 250.787 81.9632 251.016 80.9712 251.016C79.8832 251.016 79.0352 250.723 78.4272 250.136C77.8192 249.549 77.4725 248.803 77.3872 247.896H78.7312ZM80.9872 245.56C81.7019 245.56 82.2885 245.341 82.7472 244.904C83.2059 244.456 83.4352 243.853 83.4352 243.096C83.4352 242.296 83.2112 241.651 82.7632 241.16C82.3152 240.669 81.6859 240.424 80.8752 240.424C80.1285 240.424 79.5312 240.659 79.0832 241.128C78.6459 241.597 78.4272 242.216 78.4272 242.984C78.4272 243.763 78.6459 244.387 79.0832 244.856C79.5205 245.325 80.1552 245.56 80.9872 245.56ZM86.9053 242.344C86.98 241.363 87.3586 240.595 88.0413 240.04C88.724 239.485 89.6093 239.208 90.6973 239.208C91.4226 239.208 92.0466 239.341 92.5693 239.608C93.1026 239.864 93.5026 240.216 93.7693 240.664C94.0466 241.112 94.1853 241.619 94.1853 242.184C94.1853 242.845 93.9933 243.416 93.6093 243.896C93.236 244.376 92.7453 244.685 92.1373 244.824V244.904C92.8306 245.075 93.38 245.411 93.7853 245.912C94.1906 246.413 94.3933 247.069 94.3933 247.88C94.3933 248.488 94.2546 249.037 93.9773 249.528C93.7 250.008 93.284 250.387 92.7293 250.664C92.1746 250.941 91.508 251.08 90.7293 251.08C89.5986 251.08 88.6706 250.787 87.9453 250.2C87.22 249.603 86.8146 248.76 86.7293 247.672H88.1373C88.212 248.312 88.4733 248.835 88.9213 249.24C89.3693 249.645 89.9666 249.848 90.7133 249.848C91.46 249.848 92.0253 249.656 92.4093 249.272C92.804 248.877 93.0013 248.371 93.0013 247.752C93.0013 246.952 92.7346 246.376 92.2013 246.024C91.668 245.672 90.8626 245.496 89.7853 245.496H89.4173V244.28H89.8013C90.7826 244.269 91.524 244.109 92.0253 243.8C92.5266 243.48 92.7773 242.989 92.7773 242.328C92.7773 241.763 92.5906 241.309 92.2173 240.968C91.8546 240.627 91.332 240.456 90.6493 240.456C89.988 240.456 89.4546 240.627 89.0493 240.968C88.644 241.309 88.404 241.768 88.3293 242.344H86.9053ZM98.2312 247.896C98.3379 248.504 98.5832 248.973 98.9672 249.304C99.3619 249.635 99.8899 249.8 100.551 249.8C101.437 249.8 102.087 249.453 102.503 248.76C102.93 248.067 103.133 246.899 103.111 245.256C102.887 245.736 102.514 246.115 101.991 246.392C101.469 246.659 100.887 246.792 100.247 246.792C99.5325 246.792 98.8925 246.648 98.3272 246.36C97.7725 246.061 97.3352 245.629 97.0152 245.064C96.6952 244.499 96.5352 243.816 96.5352 243.016C96.5352 241.875 96.8659 240.957 97.5272 240.264C98.1885 239.56 99.1272 239.208 100.343 239.208C101.837 239.208 102.882 239.693 103.479 240.664C104.087 241.635 104.391 243.08 104.391 245C104.391 246.344 104.269 247.453 104.023 248.328C103.789 249.203 103.383 249.869 102.807 250.328C102.242 250.787 101.463 251.016 100.471 251.016C99.3832 251.016 98.5352 250.723 97.9272 250.136C97.3192 249.549 96.9725 248.803 96.8872 247.896H98.2312ZM100.487 245.56C101.202 245.56 101.789 245.341 102.247 244.904C102.706 244.456 102.935 243.853 102.935 243.096C102.935 242.296 102.711 241.651 102.263 241.16C101.815 240.669 101.186 240.424 100.375 240.424C99.6285 240.424 99.0312 240.659 98.5832 241.128C98.1459 241.597 97.9272 242.216 97.9272 242.984C97.9272 243.763 98.1459 244.387 98.5832 244.856C99.0205 245.325 99.6552 245.56 100.487 245.56ZM112.757 244.52V245.752H106.373V244.52H112.757ZM117.122 247.896C117.228 248.504 117.474 248.973 117.858 249.304C118.252 249.635 118.78 249.8 119.442 249.8C120.327 249.8 120.978 249.453 121.394 248.76C121.82 248.067 122.023 246.899 122.002 245.256C121.778 245.736 121.404 246.115 120.882 246.392C120.359 246.659 119.778 246.792 119.138 246.792C118.423 246.792 117.783 246.648 117.218 246.36C116.663 246.061 116.226 245.629 115.906 245.064C115.586 244.499 115.426 243.816 115.426 243.016C115.426 241.875 115.756 240.957 116.418 240.264C117.079 239.56 118.018 239.208 119.234 239.208C120.727 239.208 121.772 239.693 122.37 240.664C122.978 241.635 123.282 243.08 123.282 245C123.282 246.344 123.159 247.453 122.914 248.328C122.679 249.203 122.274 249.869 121.698 250.328C121.132 250.787 120.354 251.016 119.362 251.016C118.274 251.016 117.426 250.723 116.818 250.136C116.21 249.549 115.863 248.803 115.778 247.896H117.122ZM119.378 245.56C120.092 245.56 120.679 245.341 121.138 244.904C121.596 244.456 121.826 243.853 121.826 243.096C121.826 242.296 121.602 241.651 121.154 241.16C120.706 240.669 120.076 240.424 119.266 240.424C118.519 240.424 117.922 240.659 117.474 241.128C117.036 241.597 116.818 242.216 116.818 242.984C116.818 243.763 117.036 244.387 117.474 244.856C117.911 245.325 118.546 245.56 119.378 245.56ZM125.152 249.832C126.507 248.744 127.568 247.853 128.336 247.16C129.104 246.456 129.749 245.725 130.272 244.968C130.805 244.2 131.072 243.448 131.072 242.712C131.072 242.019 130.901 241.475 130.56 241.08C130.229 240.675 129.691 240.472 128.944 240.472C128.219 240.472 127.653 240.701 127.248 241.16C126.853 241.608 126.64 242.211 126.608 242.968H125.2C125.243 241.773 125.605 240.851 126.288 240.2C126.971 239.549 127.851 239.224 128.928 239.224C130.027 239.224 130.896 239.528 131.536 240.136C132.187 240.744 132.512 241.581 132.512 242.648C132.512 243.533 132.245 244.397 131.712 245.24C131.189 246.072 130.592 246.808 129.92 247.448C129.248 248.077 128.389 248.813 127.344 249.656H132.848V250.872H125.152V249.832ZM136.403 247.896C136.51 248.504 136.755 248.973 137.139 249.304C137.534 249.635 138.062 249.8 138.723 249.8C139.608 249.8 140.259 249.453 140.675 248.76C141.102 248.067 141.304 246.899 141.283 245.256C141.059 245.736 140.686 246.115 140.163 246.392C139.64 246.659 139.059 246.792 138.419 246.792C137.704 246.792 137.064 246.648 136.499 246.36C135.944 246.061 135.507 245.629 135.187 245.064C134.867 244.499 134.707 243.816 134.707 243.016C134.707 241.875 135.038 240.957 135.699 240.264C136.36 239.56 137.299 239.208 138.515 239.208C140.008 239.208 141.054 239.693 141.651 240.664C142.259 241.635 142.563 243.08 142.563 245C142.563 246.344 142.44 247.453 142.195 248.328C141.96 249.203 141.555 249.869 140.979 250.328C140.414 250.787 139.635 251.016 138.643 251.016C137.555 251.016 136.707 250.723 136.099 250.136C135.491 249.549 135.144 248.803 135.059 247.896H136.403ZM138.659 245.56C139.374 245.56 139.96 245.341 140.419 244.904C140.878 244.456 141.107 243.853 141.107 243.096C141.107 242.296 140.883 241.651 140.435 241.16C139.987 240.669 139.358 240.424 138.547 240.424C137.8 240.424 137.203 240.659 136.755 241.128C136.318 241.597 136.099 242.216 136.099 242.984C136.099 243.763 136.318 244.387 136.755 244.856C137.192 245.325 137.827 245.56 138.659 245.56ZM144.577 242.344C144.652 241.363 145.031 240.595 145.713 240.04C146.396 239.485 147.281 239.208 148.369 239.208C149.095 239.208 149.719 239.341 150.241 239.608C150.775 239.864 151.175 240.216 151.441 240.664C151.719 241.112 151.857 241.619 151.857 242.184C151.857 242.845 151.665 243.416 151.281 243.896C150.908 244.376 150.417 244.685 149.809 244.824V244.904C150.503 245.075 151.052 245.411 151.457 245.912C151.863 246.413 152.065 247.069 152.065 247.88C152.065 248.488 151.927 249.037 151.649 249.528C151.372 250.008 150.956 250.387 150.401 250.664C149.847 250.941 149.18 251.08 148.401 251.08C147.271 251.08 146.343 250.787 145.617 250.2C144.892 249.603 144.487 248.76 144.401 247.672H145.809C145.884 248.312 146.145 248.835 146.593 249.24C147.041 249.645 147.639 249.848 148.385 249.848C149.132 249.848 149.697 249.656 150.081 249.272C150.476 248.877 150.673 248.371 150.673 247.752C150.673 246.952 150.407 246.376 149.873 246.024C149.34 245.672 148.535 245.496 147.457 245.496H147.089V244.28H147.473C148.455 244.269 149.196 244.109 149.697 243.8C150.199 243.48 150.449 242.989 150.449 242.328C150.449 241.763 150.263 241.309 149.889 240.968C149.527 240.627 149.004 240.456 148.321 240.456C147.66 240.456 147.127 240.627 146.721 240.968C146.316 241.309 146.076 241.768 146.001 242.344H144.577ZM160.351 244.52V245.752H153.967V244.52H160.351ZM162.668 249.832C164.022 248.744 165.084 247.853 165.852 247.16C166.62 246.456 167.265 245.725 167.788 244.968C168.321 244.2 168.588 243.448 168.588 242.712C168.588 242.019 168.417 241.475 168.076 241.08C167.745 240.675 167.206 240.472 166.46 240.472C165.734 240.472 165.169 240.701 164.764 241.16C164.369 241.608 164.156 242.211 164.124 242.968H162.716C162.758 241.773 163.121 240.851 163.804 240.2C164.486 239.549 165.366 239.224 166.444 239.224C167.542 239.224 168.412 239.528 169.052 240.136C169.702 240.744 170.028 241.581 170.028 242.648C170.028 243.533 169.761 244.397 169.228 245.24C168.705 246.072 168.108 246.808 167.436 247.448C166.764 248.077 165.905 248.813 164.86 249.656H170.364V250.872H162.668V249.832ZM173.919 247.896C174.025 248.504 174.271 248.973 174.655 249.304C175.049 249.635 175.577 249.8 176.239 249.8C177.124 249.8 177.775 249.453 178.191 248.76C178.617 248.067 178.82 246.899 178.799 245.256C178.575 245.736 178.201 246.115 177.679 246.392C177.156 246.659 176.575 246.792 175.935 246.792C175.22 246.792 174.58 246.648 174.015 246.36C173.46 246.061 173.023 245.629 172.703 245.064C172.383 244.499 172.223 243.816 172.223 243.016C172.223 241.875 172.553 240.957 173.215 240.264C173.876 239.56 174.815 239.208 176.031 239.208C177.524 239.208 178.569 239.693 179.167 240.664C179.775 241.635 180.079 243.08 180.079 245C180.079 246.344 179.956 247.453 179.711 248.328C179.476 249.203 179.071 249.869 178.495 250.328C177.929 250.787 177.151 251.016 176.159 251.016C175.071 251.016 174.223 250.723 173.615 250.136C173.007 249.549 172.66 248.803 172.575 247.896H173.919ZM176.175 245.56C176.889 245.56 177.476 245.341 177.935 244.904C178.393 244.456 178.623 243.853 178.623 243.096C178.623 242.296 178.399 241.651 177.951 241.16C177.503 240.669 176.873 240.424 176.063 240.424C175.316 240.424 174.719 240.659 174.271 241.128C173.833 241.597 173.615 242.216 173.615 242.984C173.615 243.763 173.833 244.387 174.271 244.856C174.708 245.325 175.343 245.56 176.175 245.56ZM183.997 247.896C184.103 248.504 184.349 248.973 184.733 249.304C185.127 249.635 185.655 249.8 186.317 249.8C187.202 249.8 187.853 249.453 188.269 248.76C188.695 248.067 188.898 246.899 188.877 245.256C188.653 245.736 188.279 246.115 187.757 246.392C187.234 246.659 186.653 246.792 186.013 246.792C185.298 246.792 184.658 246.648 184.093 246.36C183.538 246.061 183.101 245.629 182.781 245.064C182.461 244.499 182.301 243.816 182.301 243.016C182.301 241.875 182.631 240.957 183.293 240.264C183.954 239.56 184.893 239.208 186.109 239.208C187.602 239.208 188.647 239.693 189.245 240.664C189.853 241.635 190.157 243.08 190.157 245C190.157 246.344 190.034 247.453 189.789 248.328C189.554 249.203 189.149 249.869 188.573 250.328C188.007 250.787 187.229 251.016 186.237 251.016C185.149 251.016 184.301 250.723 183.693 250.136C183.085 249.549 182.738 248.803 182.653 247.896H183.997ZM186.253 245.56C186.967 245.56 187.554 245.341 188.013 244.904C188.471 244.456 188.701 243.853 188.701 243.096C188.701 242.296 188.477 241.651 188.029 241.16C187.581 240.669 186.951 240.424 186.141 240.424C185.394 240.424 184.797 240.659 184.349 241.128C183.911 241.597 183.693 242.216 183.693 242.984C183.693 243.763 183.911 244.387 184.349 244.856C184.786 245.325 185.421 245.56 186.253 245.56ZM192.027 249.832C193.382 248.744 194.443 247.853 195.211 247.16C195.979 246.456 196.624 245.725 197.147 244.968C197.68 244.2 197.947 243.448 197.947 242.712C197.947 242.019 197.776 241.475 197.435 241.08C197.104 240.675 196.566 240.472 195.819 240.472C195.094 240.472 194.528 240.701 194.123 241.16C193.728 241.608 193.515 242.211 193.483 242.968H192.075C192.118 241.773 192.48 240.851 193.163 240.2C193.846 239.549 194.726 239.224 195.803 239.224C196.902 239.224 197.771 239.528 198.411 240.136C199.062 240.744 199.387 241.581 199.387 242.648C199.387 243.533 199.12 244.397 198.587 245.24C198.064 246.072 197.467 246.808 196.795 247.448C196.123 248.077 195.264 248.813 194.219 249.656H199.723V250.872H192.027V249.832Z" fill="white"/>
<path d="M30.0066 286L25.4146 280.912V286H23.9586V274.848H25.4146V280.016L30.0226 274.848H31.8626L26.8066 280.432L31.9106 286H30.0066ZM41.3127 277.232V286H39.8567V284.704C39.5794 285.152 39.19 285.504 38.6887 285.76C38.198 286.005 37.654 286.128 37.0567 286.128C36.374 286.128 35.7607 285.989 35.2167 285.712C34.6727 285.424 34.2407 284.997 33.9207 284.432C33.6114 283.867 33.4567 283.179 33.4567 282.368V277.232H34.8967V282.176C34.8967 283.04 35.1154 283.707 35.5527 284.176C35.99 284.635 36.5874 284.864 37.3447 284.864C38.1234 284.864 38.7367 284.624 39.1847 284.144C39.6327 283.664 39.8567 282.965 39.8567 282.048V277.232H41.3127ZM48.0431 277.072C49.1097 277.072 49.9737 277.397 50.6351 278.048C51.2964 278.688 51.6271 279.616 51.6271 280.832V286H50.1871V281.04C50.1871 280.165 49.9684 279.499 49.5311 279.04C49.0937 278.571 48.4964 278.336 47.7391 278.336C46.9711 278.336 46.3577 278.576 45.8991 279.056C45.4511 279.536 45.2271 280.235 45.2271 281.152V286H43.7711V277.232H45.2271V278.48C45.5151 278.032 45.9044 277.685 46.3951 277.44C46.8964 277.195 47.4457 277.072 48.0431 277.072ZM55.4614 274.16V286H54.0054V274.16H55.4614ZM65.9429 281.28C65.9429 281.557 65.9269 281.851 65.8949 282.16H58.8869C58.9403 283.024 59.2336 283.701 59.7669 284.192C60.3109 284.672 60.9669 284.912 61.7349 284.912C62.3643 284.912 62.8869 284.768 63.3029 284.48C63.7296 284.181 64.0283 283.787 64.1989 283.296H65.7669C65.5323 284.139 65.0629 284.827 64.3589 285.36C63.6549 285.883 62.7803 286.144 61.7349 286.144C60.9029 286.144 60.1563 285.957 59.4949 285.584C58.8443 285.211 58.3323 284.683 57.9589 284C57.5856 283.307 57.3989 282.507 57.3989 281.6C57.3989 280.693 57.5803 279.899 57.9429 279.216C58.3056 278.533 58.8123 278.011 59.4629 277.648C60.1243 277.275 60.8816 277.088 61.7349 277.088C62.5669 277.088 63.3029 277.269 63.9429 277.632C64.5829 277.995 65.0736 278.496 65.4149 279.136C65.7669 279.765 65.9429 280.48 65.9429 281.28ZM64.4389 280.976C64.4389 280.421 64.3163 279.947 64.0709 279.552C63.8256 279.147 63.4896 278.843 63.0629 278.64C62.6469 278.427 62.1829 278.32 61.6709 278.32C60.9349 278.32 60.3056 278.555 59.7829 279.024C59.2709 279.493 58.9776 280.144 58.9029 280.976H64.4389ZM77.7144 280.256C78.1198 280.32 78.4878 280.485 78.8184 280.752C79.1598 281.019 79.4264 281.349 79.6184 281.744C79.8211 282.139 79.9224 282.56 79.9224 283.008C79.9224 283.573 79.7784 284.085 79.4904 284.544C79.2024 284.992 78.7811 285.349 78.2264 285.616C77.6824 285.872 77.0371 286 76.2904 286H72.1304V274.848H76.1304C76.8878 274.848 77.5331 274.976 78.0664 275.232C78.5998 275.477 78.9998 275.813 79.2664 276.24C79.5331 276.667 79.6664 277.147 79.6664 277.68C79.6664 278.341 79.4851 278.891 79.1224 279.328C78.7704 279.755 78.3011 280.064 77.7144 280.256ZM73.5864 279.664H76.0344C76.7171 279.664 77.2451 279.504 77.6184 279.184C77.9918 278.864 78.1784 278.421 78.1784 277.856C78.1784 277.291 77.9918 276.848 77.6184 276.528C77.2451 276.208 76.7064 276.048 76.0024 276.048H73.5864V279.664ZM76.1624 284.8C76.8878 284.8 77.4531 284.629 77.8584 284.288C78.2638 283.947 78.4664 283.472 78.4664 282.864C78.4664 282.245 78.2531 281.76 77.8264 281.408C77.3998 281.045 76.8291 280.864 76.1144 280.864H73.5864V284.8H76.1624ZM83.3989 278.656C83.6549 278.155 84.0176 277.765 84.4869 277.488C84.9669 277.211 85.5483 277.072 86.2309 277.072V278.576H85.8469C84.2149 278.576 83.3989 279.461 83.3989 281.232V286H81.9429V277.232H83.3989V278.656ZM91.7357 286.144C90.9144 286.144 90.1677 285.957 89.4957 285.584C88.8344 285.211 88.3117 284.683 87.9277 284C87.5544 283.307 87.3677 282.507 87.3677 281.6C87.3677 280.704 87.5597 279.915 87.9437 279.232C88.3384 278.539 88.8717 278.011 89.5437 277.648C90.2157 277.275 90.9677 277.088 91.7997 277.088C92.6317 277.088 93.3837 277.275 94.0557 277.648C94.7277 278.011 95.2557 278.533 95.6397 279.216C96.0344 279.899 96.2317 280.693 96.2317 281.6C96.2317 282.507 96.029 283.307 95.6237 284C95.229 284.683 94.6904 285.211 94.0077 285.584C93.325 285.957 92.5677 286.144 91.7357 286.144ZM91.7357 284.864C92.2584 284.864 92.749 284.741 93.2077 284.496C93.6664 284.251 94.0344 283.883 94.3117 283.392C94.5997 282.901 94.7437 282.304 94.7437 281.6C94.7437 280.896 94.605 280.299 94.3277 279.808C94.0504 279.317 93.6877 278.955 93.2397 278.72C92.7917 278.475 92.3064 278.352 91.7837 278.352C91.2504 278.352 90.7597 278.475 90.3117 278.72C89.8744 278.955 89.5224 279.317 89.2557 279.808C88.989 280.299 88.8557 280.896 88.8557 281.6C88.8557 282.315 88.9837 282.917 89.2397 283.408C89.5064 283.899 89.8584 284.267 90.2957 284.512C90.733 284.747 91.213 284.864 91.7357 284.864ZM109.826 277.232L107.09 286H105.586L103.474 279.04L101.362 286H99.8581L97.1061 277.232H98.5941L100.61 284.592L102.786 277.232H104.274L106.402 284.608L108.386 277.232H109.826ZM115.543 277.072C116.61 277.072 117.474 277.397 118.135 278.048C118.796 278.688 119.127 279.616 119.127 280.832V286H117.687V281.04C117.687 280.165 117.468 279.499 117.031 279.04C116.594 278.571 115.996 278.336 115.239 278.336C114.471 278.336 113.858 278.576 113.399 279.056C112.951 279.536 112.727 280.235 112.727 281.152V286H111.271V277.232H112.727V278.48C113.015 278.032 113.404 277.685 113.895 277.44C114.396 277.195 114.946 277.072 115.543 277.072Z" fill="white"/>
<ellipse cx="461.246" cy="275.098" rx="12.6013" ry="13.4492" fill="#FBDB35" fill-opacity="0.7"/>
<ellipse cx="448.645" cy="275.098" rx="12.6013" ry="13.4492" fill="#F87053" fill-opacity="0.7"/>
<g clip-path="url(#clip0_85_871)">
<path d="M465.99 46.405L463.261 48.5811C470.342 53.4984 470.585 61.8705 463.804 67.2781L466.654 69.2569C474.936 62.6524 474.638 52.421 465.99 46.405ZM455.075 55.1094L450.982 58.3736L455.256 61.3418C455.794 60.9135 456.217 60.4123 456.499 59.8671C456.782 59.3218 456.918 58.7431 456.902 58.1642C456.885 57.5852 456.715 57.0174 456.401 56.4932C456.088 55.969 455.637 55.4988 455.075 55.1094ZM460.532 50.7572L457.804 52.9333C459.692 54.2458 460.785 56.0771 460.841 58.0248C460.898 59.9726 459.914 61.8773 458.105 63.3206L460.955 65.2993C466.221 61.0995 466.032 54.5867 460.532 50.7572Z" fill="white"/>
</g>
<defs>
<filter id="filter0_i_85_871" x="0" y="0" width="500" height="313" filterUnits="userSpaceOnUse" color-interpolation-filters="sRGB">
<feFlood flood-opacity="0" result="BackgroundImageFix"/>
<feBlend mode="normal" in="SourceGraphic" in2="BackgroundImageFix" result="shape"/>
<feColorMatrix in="SourceAlpha" type="matrix" values="0 0 0 0 0 0 0 0 0 0 0 0 0 0 0 0 0 0 127 0" result="hardAlpha"/>
<feMorphology radius="100" operator="erode" in="SourceAlpha" result="effect1_innerShadow_85_871"/>
<feOffset/>
<feGaussianBlur stdDeviation="150"/>
<feComposite in2="hardAlpha" operator="arithmetic" k2="-1" k3="1"/>
<feColorMatrix type="matrix" values="0 0 0 0 0.233333 0 0 0 0 0.233333 0 0 0 0 0.233333 0 0 0 0.25 0"/>
<feBlend mode="normal" in2="shape" result="effect1_innerShadow_85_871"/>
</filter>
<clipPath id="clip0_85_871">
<rect width="24.9399" height="22.6089" fill="white" transform="matrix(0.0290457 0.999578 -0.999375 0.0353509 476.496 44.9937)"/>
</clipPath>
</defs>
</svg>
