<svg width="500" height="313" viewBox="0 0 500 313" fill="none" xmlns="http://www.w3.org/2000/svg">
<g filter="url(#filter0_i_85_890)">
<rect width="500" height="313" rx="20" fill="#645F5F"/>
</g>
<rect x="0.5" y="0.5" width="499" height="312" rx="19.5" stroke="#645F5F"/>
<path d="M24.6478 248.424V247.32L30.2638 239.544H32.0078V247.16H33.6078V248.424H32.0078V251H30.5678V248.424H24.6478ZM30.6318 241.064L26.3278 247.16H30.6318V241.064ZM42.4383 240.696H36.8223V244.344C37.0676 244.003 37.4303 243.725 37.9103 243.512C38.3903 243.288 38.9076 243.176 39.4623 243.176C40.3476 243.176 41.0676 243.363 41.6223 243.736C42.177 244.099 42.5716 244.573 42.8063 245.16C43.0516 245.736 43.1743 246.349 43.1743 247C43.1743 247.768 43.0303 248.456 42.7423 249.064C42.4543 249.672 42.0116 250.152 41.4143 250.504C40.8276 250.856 40.097 251.032 39.2223 251.032C38.1023 251.032 37.1956 250.744 36.5023 250.168C35.809 249.592 35.3876 248.824 35.2383 247.864H36.6623C36.801 248.472 37.0943 248.947 37.5423 249.288C37.9903 249.629 38.5556 249.8 39.2383 249.8C40.081 249.8 40.7156 249.549 41.1423 249.048C41.569 248.536 41.7823 247.864 41.7823 247.032C41.7823 246.2 41.569 245.56 41.1423 245.112C40.7156 244.653 40.0863 244.424 39.2543 244.424C38.689 244.424 38.193 244.563 37.7663 244.84C37.3503 245.107 37.0463 245.475 36.8543 245.944H35.4783V239.416H42.4383V240.696ZM44.7252 240.76V239.432H47.7332V251H46.2612V240.76H44.7252ZM57.6102 240.696H51.9942V244.344C52.2395 244.003 52.6022 243.725 53.0822 243.512C53.5622 243.288 54.0795 243.176 54.6342 243.176C55.5195 243.176 56.2395 243.363 56.7942 243.736C57.3489 244.099 57.7435 244.573 57.9782 245.16C58.2235 245.736 58.3462 246.349 58.3462 247C58.3462 247.768 58.2022 248.456 57.9142 249.064C57.6262 249.672 57.1835 250.152 56.5862 250.504C55.9995 250.856 55.2689 251.032 54.3942 251.032C53.2742 251.032 52.3675 250.744 51.6742 250.168C50.9809 249.592 50.5595 248.824 50.4102 247.864H51.8342C51.9729 248.472 52.2662 248.947 52.7142 249.288C53.1622 249.629 53.7275 249.8 54.4102 249.8C55.2529 249.8 55.8875 249.549 56.3142 249.048C56.7409 248.536 56.9542 247.864 56.9542 247.032C56.9542 246.2 56.7409 245.56 56.3142 245.112C55.8875 244.653 55.2582 244.424 54.4262 244.424C53.8609 244.424 53.3649 244.563 52.9382 244.84C52.5222 245.107 52.2182 245.475 52.0262 245.944H50.6502V239.416H57.6102V240.696ZM66.6011 244.52V245.752H60.2171V244.52H66.6011ZM68.9176 249.832C70.2722 248.744 71.3336 247.853 72.1016 247.16C72.8696 246.456 73.5149 245.725 74.0376 244.968C74.5709 244.2 74.8376 243.448 74.8376 242.712C74.8376 242.019 74.6669 241.475 74.3256 241.08C73.9949 240.675 73.4562 240.472 72.7096 240.472C71.9842 240.472 71.4189 240.701 71.0136 241.16C70.6189 241.608 70.4056 242.211 70.3736 242.968H68.9656C69.0082 241.773 69.3709 240.851 70.0536 240.2C70.7362 239.549 71.6162 239.224 72.6936 239.224C73.7922 239.224 74.6616 239.528 75.3016 240.136C75.9522 240.744 76.2776 241.581 76.2776 242.648C76.2776 243.533 76.0109 244.397 75.4776 245.24C74.9549 246.072 74.3576 246.808 73.6856 247.448C73.0136 248.077 72.1549 248.813 71.1096 249.656H76.6136V250.872H68.9176V249.832ZM80.4087 244.984C79.8114 244.749 79.3527 244.408 79.0327 243.96C78.7127 243.512 78.5527 242.968 78.5527 242.328C78.5527 241.752 78.6967 241.235 78.9847 240.776C79.2727 240.307 79.6994 239.939 80.2647 239.672C80.8407 239.395 81.534 239.256 82.3447 239.256C83.1554 239.256 83.8434 239.395 84.4087 239.672C84.9847 239.939 85.4167 240.307 85.7047 240.776C86.0034 241.235 86.1527 241.752 86.1527 242.328C86.1527 242.947 85.9874 243.491 85.6567 243.96C85.326 244.419 84.8727 244.76 84.2967 244.984C84.958 245.187 85.4807 245.544 85.8647 246.056C86.2594 246.557 86.4567 247.165 86.4567 247.88C86.4567 248.573 86.286 249.181 85.9447 249.704C85.6034 250.216 85.118 250.616 84.4887 250.904C83.87 251.181 83.1554 251.32 82.3447 251.32C81.534 251.32 80.8194 251.181 80.2007 250.904C79.5927 250.616 79.118 250.216 78.7767 249.704C78.4354 249.181 78.2647 248.573 78.2647 247.88C78.2647 247.165 78.4567 246.552 78.8407 246.04C79.2247 245.528 79.7474 245.176 80.4087 244.984ZM84.7447 242.504C84.7447 241.853 84.5314 241.352 84.1047 241C83.678 240.648 83.0914 240.472 82.3447 240.472C81.6087 240.472 81.0274 240.648 80.6007 241C80.174 241.352 79.9607 241.859 79.9607 242.52C79.9607 243.117 80.1794 243.597 80.6167 243.96C81.0647 244.323 81.6407 244.504 82.3447 244.504C83.0594 244.504 83.6354 244.323 84.0727 243.96C84.5207 243.587 84.7447 243.101 84.7447 242.504ZM82.3447 245.624C81.5554 245.624 80.91 245.811 80.4087 246.184C79.9074 246.547 79.6567 247.096 79.6567 247.832C79.6567 248.515 79.8967 249.064 80.3767 249.48C80.8674 249.896 81.5234 250.104 82.3447 250.104C83.166 250.104 83.8167 249.896 84.2967 249.48C84.7767 249.064 85.0167 248.515 85.0167 247.832C85.0167 247.117 84.7714 246.573 84.2807 246.2C83.79 245.816 83.1447 245.624 82.3447 245.624ZM95.7664 240.696H90.1504V244.344C90.3958 244.003 90.7584 243.725 91.2384 243.512C91.7184 243.288 92.2358 243.176 92.7904 243.176C93.6758 243.176 94.3958 243.363 94.9504 243.736C95.5051 244.099 95.8998 244.573 96.1344 245.16C96.3798 245.736 96.5024 246.349 96.5024 247C96.5024 247.768 96.3584 248.456 96.0704 249.064C95.7824 249.672 95.3398 250.152 94.7424 250.504C94.1558 250.856 93.4251 251.032 92.5504 251.032C91.4304 251.032 90.5238 250.744 89.8304 250.168C89.1371 249.592 88.7158 248.824 88.5664 247.864H89.9904C90.1291 248.472 90.4224 248.947 90.8704 249.288C91.3184 249.629 91.8838 249.8 92.5664 249.8C93.4091 249.8 94.0438 249.549 94.4704 249.048C94.8971 248.536 95.1104 247.864 95.1104 247.032C95.1104 246.2 94.8971 245.56 94.4704 245.112C94.0438 244.653 93.4144 244.424 92.5824 244.424C92.0171 244.424 91.5211 244.563 91.0944 244.84C90.6784 245.107 90.3744 245.475 90.1824 245.944H88.8064V239.416H95.7664V240.696ZM98.0853 248.424V247.32L103.701 239.544H105.445V247.16H107.045V248.424H105.445V251H104.005V248.424H98.0853ZM104.069 241.064L99.7653 247.16H104.069V241.064ZM114.82 244.52V245.752H108.436V244.52H114.82ZM116.928 240.76V239.432H119.936V251H118.464V240.76H116.928ZM122.085 248.424V247.32L127.701 239.544H129.445V247.16H131.045V248.424H129.445V251H128.005V248.424H122.085ZM128.069 241.064L123.765 247.16H128.069V241.064ZM132.116 240.76V239.432H135.124V251H133.652V240.76H132.116ZM137.625 245.096C137.625 243.261 137.923 241.832 138.521 240.808C139.118 239.773 140.163 239.256 141.657 239.256C143.139 239.256 144.179 239.773 144.777 240.808C145.374 241.832 145.673 243.261 145.673 245.096C145.673 246.963 145.374 248.413 144.777 249.448C144.179 250.483 143.139 251 141.657 251C140.163 251 139.118 250.483 138.521 249.448C137.923 248.413 137.625 246.963 137.625 245.096ZM144.233 245.096C144.233 244.168 144.169 243.384 144.041 242.744C143.923 242.093 143.673 241.571 143.289 241.176C142.915 240.781 142.371 240.584 141.657 240.584C140.931 240.584 140.377 240.781 139.993 241.176C139.619 241.571 139.369 242.093 139.241 242.744C139.123 243.384 139.065 244.168 139.065 245.096C139.065 246.056 139.123 246.861 139.241 247.512C139.369 248.163 139.619 248.685 139.993 249.08C140.377 249.475 140.931 249.672 141.657 249.672C142.371 249.672 142.915 249.475 143.289 249.08C143.673 248.685 143.923 248.163 144.041 247.512C144.169 246.861 144.233 246.056 144.233 245.096ZM153.992 244.52V245.752H147.608V244.52H153.992ZM156.1 240.76V239.432H159.108V251H157.636V240.76H156.1ZM161.433 249.832C162.788 248.744 163.849 247.853 164.617 247.16C165.385 246.456 166.031 245.725 166.553 244.968C167.087 244.2 167.353 243.448 167.353 242.712C167.353 242.019 167.183 241.475 166.841 241.08C166.511 240.675 165.972 240.472 165.225 240.472C164.5 240.472 163.935 240.701 163.529 241.16C163.135 241.608 162.921 242.211 162.889 242.968H161.481C161.524 241.773 161.887 240.851 162.569 240.2C163.252 239.549 164.132 239.224 165.209 239.224C166.308 239.224 167.177 239.528 167.817 240.136C168.468 240.744 168.793 241.581 168.793 242.648C168.793 243.533 168.527 244.397 167.993 245.24C167.471 246.072 166.873 246.808 166.201 247.448C165.529 248.077 164.671 248.813 163.625 249.656H169.129V250.872H161.433V249.832ZM178.188 240.696H172.572V244.344C172.818 244.003 173.18 243.725 173.66 243.512C174.14 243.288 174.658 243.176 175.212 243.176C176.098 243.176 176.818 243.363 177.372 243.736C177.927 244.099 178.322 244.573 178.556 245.16C178.802 245.736 178.924 246.349 178.924 247C178.924 247.768 178.78 248.456 178.492 249.064C178.204 249.672 177.762 250.152 177.164 250.504C176.578 250.856 175.847 251.032 174.972 251.032C173.852 251.032 172.946 250.744 172.252 250.168C171.559 249.592 171.138 248.824 170.988 247.864H172.412C172.551 248.472 172.844 248.947 173.292 249.288C173.74 249.629 174.306 249.8 174.988 249.8C175.831 249.8 176.466 249.549 176.892 249.048C177.319 248.536 177.532 247.864 177.532 247.032C177.532 246.2 177.319 245.56 176.892 245.112C176.466 244.653 175.836 244.424 175.004 244.424C174.439 244.424 173.943 244.563 173.516 244.84C173.1 245.107 172.796 245.475 172.604 245.944H171.228V239.416H178.188V240.696ZM180.475 240.76V239.432H183.483V251H182.011V240.76H180.475Z" fill="white"/>
<path d="M25.688 276.032V279.76H29.752V280.96H25.688V284.8H30.232V286H24.232V274.832H30.232V276.032H25.688ZM36.7071 277.072C37.7738 277.072 38.6378 277.397 39.2991 278.048C39.9605 278.688 40.2911 279.616 40.2911 280.832V286H38.8511V281.04C38.8511 280.165 38.6325 279.499 38.1951 279.04C37.7578 278.571 37.1605 278.336 36.4031 278.336C35.6351 278.336 35.0218 278.576 34.5631 279.056C34.1151 279.536 33.8911 280.235 33.8911 281.152V286H32.4351V277.232H33.8911V278.48C34.1791 278.032 34.5685 277.685 35.0591 277.44C35.5605 277.195 36.1098 277.072 36.7071 277.072ZM43.4215 275.808C43.1442 275.808 42.9095 275.712 42.7175 275.52C42.5255 275.328 42.4295 275.093 42.4295 274.816C42.4295 274.539 42.5255 274.304 42.7175 274.112C42.9095 273.92 43.1442 273.824 43.4215 273.824C43.6882 273.824 43.9122 273.92 44.0935 274.112C44.2855 274.304 44.3815 274.539 44.3815 274.816C44.3815 275.093 44.2855 275.328 44.0935 275.52C43.9122 275.712 43.6882 275.808 43.4215 275.808ZM44.1255 277.232V286H42.6695V277.232H44.1255ZM50.431 286.144C49.6097 286.144 48.863 285.957 48.191 285.584C47.5297 285.211 47.007 284.683 46.623 284C46.2497 283.307 46.063 282.507 46.063 281.6C46.063 280.704 46.255 279.915 46.639 279.232C47.0337 278.539 47.567 278.011 48.239 277.648C48.911 277.275 49.663 277.088 50.495 277.088C51.327 277.088 52.079 277.275 52.751 277.648C53.423 278.011 53.951 278.533 54.335 279.216C54.7297 279.899 54.927 280.693 54.927 281.6C54.927 282.507 54.7243 283.307 54.319 284C53.9243 284.683 53.3857 285.211 52.703 285.584C52.0203 285.957 51.263 286.144 50.431 286.144ZM50.431 284.864C50.9537 284.864 51.4443 284.741 51.903 284.496C52.3617 284.251 52.7297 283.883 53.007 283.392C53.295 282.901 53.439 282.304 53.439 281.6C53.439 280.896 53.3003 280.299 53.023 279.808C52.7457 279.317 52.383 278.955 51.935 278.72C51.487 278.475 51.0017 278.352 50.479 278.352C49.9457 278.352 49.455 278.475 49.007 278.72C48.5697 278.955 48.2177 279.317 47.951 279.808C47.6843 280.299 47.551 280.896 47.551 281.6C47.551 282.315 47.679 282.917 47.935 283.408C48.2017 283.899 48.5537 284.267 48.991 284.512C49.4283 284.747 49.9083 284.864 50.431 284.864ZM58.2974 274.16V286H56.8414V274.16H58.2974ZM60.2349 281.584C60.2349 280.688 60.4162 279.904 60.7789 279.232C61.1415 278.549 61.6375 278.021 62.2669 277.648C62.9069 277.275 63.6162 277.088 64.3949 277.088C65.1629 277.088 65.8295 277.253 66.3949 277.584C66.9602 277.915 67.3815 278.331 67.6589 278.832V277.232H69.1309V286H67.6589V284.368C67.3709 284.88 66.9389 285.307 66.3629 285.648C65.7975 285.979 65.1362 286.144 64.3789 286.144C63.6002 286.144 62.8962 285.952 62.2669 285.568C61.6375 285.184 61.1415 284.645 60.7789 283.952C60.4162 283.259 60.2349 282.469 60.2349 281.584ZM67.6589 281.6C67.6589 280.939 67.5255 280.363 67.2589 279.872C66.9922 279.381 66.6295 279.008 66.1709 278.752C65.7229 278.485 65.2269 278.352 64.6829 278.352C64.1389 278.352 63.6429 278.48 63.1949 278.736C62.7469 278.992 62.3895 279.365 62.1229 279.856C61.8562 280.347 61.7229 280.923 61.7229 281.584C61.7229 282.256 61.8562 282.843 62.1229 283.344C62.3895 283.835 62.7469 284.213 63.1949 284.48C63.6429 284.736 64.1389 284.864 64.6829 284.864C65.2269 284.864 65.7229 284.736 66.1709 284.48C66.6295 284.213 66.9922 283.835 67.2589 283.344C67.5255 282.843 67.6589 282.261 67.6589 281.6ZM79.393 286.112C78.657 286.112 77.9957 285.984 77.409 285.728C76.833 285.461 76.3797 285.099 76.049 284.64C75.7183 284.171 75.5477 283.632 75.537 283.024H77.089C77.1423 283.547 77.3557 283.989 77.729 284.352C78.113 284.704 78.6677 284.88 79.393 284.88C80.0863 284.88 80.6303 284.709 81.025 284.368C81.4303 284.016 81.633 283.568 81.633 283.024C81.633 282.597 81.5157 282.251 81.281 281.984C81.0463 281.717 80.753 281.515 80.401 281.376C80.049 281.237 79.5743 281.088 78.977 280.928C78.241 280.736 77.649 280.544 77.201 280.352C76.7637 280.16 76.385 279.861 76.065 279.456C75.7557 279.04 75.601 278.485 75.601 277.792C75.601 277.184 75.7557 276.645 76.065 276.176C76.3743 275.707 76.8063 275.344 77.361 275.088C77.9263 274.832 78.5717 274.704 79.297 274.704C80.3423 274.704 81.1957 274.965 81.857 275.488C82.529 276.011 82.9077 276.704 82.993 277.568H81.393C81.3397 277.141 81.1157 276.768 80.721 276.448C80.3263 276.117 79.8037 275.952 79.153 275.952C78.545 275.952 78.049 276.112 77.665 276.432C77.281 276.741 77.089 277.179 77.089 277.744C77.089 278.149 77.201 278.48 77.425 278.736C77.6597 278.992 77.9423 279.189 78.273 279.328C78.6143 279.456 79.089 279.605 79.697 279.776C80.433 279.979 81.025 280.181 81.473 280.384C81.921 280.576 82.305 280.88 82.625 281.296C82.945 281.701 83.105 282.256 83.105 282.96C83.105 283.504 82.961 284.016 82.673 284.496C82.385 284.976 81.9583 285.365 81.393 285.664C80.8277 285.963 80.161 286.112 79.393 286.112ZM84.7036 281.584C84.7036 280.688 84.885 279.904 85.2476 279.232C85.6103 278.549 86.1063 278.021 86.7356 277.648C87.3756 277.275 88.085 277.088 88.8636 277.088C89.6316 277.088 90.2983 277.253 90.8636 277.584C91.429 277.915 91.8503 278.331 92.1276 278.832V277.232H93.5996V286H92.1276V284.368C91.8396 284.88 91.4076 285.307 90.8316 285.648C90.2663 285.979 89.605 286.144 88.8476 286.144C88.069 286.144 87.365 285.952 86.7356 285.568C86.1063 285.184 85.6103 284.645 85.2476 283.952C84.885 283.259 84.7036 282.469 84.7036 281.584ZM92.1276 281.6C92.1276 280.939 91.9943 280.363 91.7276 279.872C91.461 279.381 91.0983 279.008 90.6396 278.752C90.1916 278.485 89.6956 278.352 89.1516 278.352C88.6076 278.352 88.1116 278.48 87.6636 278.736C87.2156 278.992 86.8583 279.365 86.5916 279.856C86.325 280.347 86.1916 280.923 86.1916 281.584C86.1916 282.256 86.325 282.843 86.5916 283.344C86.8583 283.835 87.2156 284.213 87.6636 284.48C88.1116 284.736 88.6076 284.864 89.1516 284.864C89.6956 284.864 90.1916 284.736 90.6396 284.48C91.0983 284.213 91.461 283.835 91.7276 283.344C91.9943 282.843 92.1276 282.261 92.1276 281.6ZM97.5161 274.16V286H96.0601V274.16H97.5161ZM99.4536 281.584C99.4536 280.688 99.635 279.904 99.9976 279.232C100.36 278.549 100.856 278.021 101.486 277.648C102.126 277.275 102.835 277.088 103.614 277.088C104.382 277.088 105.048 277.253 105.614 277.584C106.179 277.915 106.6 278.331 106.878 278.832V277.232H108.35V286H106.878V284.368C106.59 284.88 106.158 285.307 105.582 285.648C105.016 285.979 104.355 286.144 103.598 286.144C102.819 286.144 102.115 285.952 101.486 285.568C100.856 285.184 100.36 284.645 99.9976 283.952C99.635 283.259 99.4536 282.469 99.4536 281.584ZM106.878 281.6C106.878 280.939 106.744 280.363 106.478 279.872C106.211 279.381 105.848 279.008 105.39 278.752C104.942 278.485 104.446 278.352 103.902 278.352C103.358 278.352 102.862 278.48 102.414 278.736C101.966 278.992 101.608 279.365 101.342 279.856C101.075 280.347 100.942 280.923 100.942 281.584C100.942 282.256 101.075 282.843 101.342 283.344C101.608 283.835 101.966 284.213 102.414 284.48C102.862 284.736 103.358 284.864 103.902 284.864C104.446 284.864 104.942 284.736 105.39 284.48C105.848 284.213 106.211 283.835 106.478 283.344C106.744 282.843 106.878 282.261 106.878 281.6ZM121.354 277.072C122.037 277.072 122.645 277.216 123.178 277.504C123.711 277.781 124.133 278.203 124.442 278.768C124.751 279.333 124.906 280.021 124.906 280.832V286H123.466V281.04C123.466 280.165 123.247 279.499 122.81 279.04C122.383 278.571 121.802 278.336 121.066 278.336C120.309 278.336 119.706 278.581 119.258 279.072C118.81 279.552 118.586 280.251 118.586 281.168V286H117.146V281.04C117.146 280.165 116.927 279.499 116.49 279.04C116.063 278.571 115.482 278.336 114.746 278.336C113.989 278.336 113.386 278.581 112.938 279.072C112.49 279.552 112.266 280.251 112.266 281.168V286H110.81V277.232H112.266V278.496C112.554 278.037 112.938 277.685 113.418 277.44C113.909 277.195 114.447 277.072 115.034 277.072C115.77 277.072 116.421 277.237 116.986 277.568C117.551 277.899 117.973 278.384 118.25 279.024C118.495 278.405 118.901 277.925 119.466 277.584C120.031 277.243 120.661 277.072 121.354 277.072ZM128.047 275.808C127.769 275.808 127.535 275.712 127.343 275.52C127.151 275.328 127.055 275.093 127.055 274.816C127.055 274.539 127.151 274.304 127.343 274.112C127.535 273.92 127.769 273.824 128.047 273.824C128.313 273.824 128.537 273.92 128.719 274.112C128.911 274.304 129.007 274.539 129.007 274.816C129.007 275.093 128.911 275.328 128.719 275.52C128.537 275.712 128.313 275.808 128.047 275.808ZM128.751 277.232V286H127.295V277.232H128.751Z" fill="white"/>
<ellipse cx="461.246" cy="275.098" rx="12.6013" ry="13.4492" fill="#FBDB35" fill-opacity="0.7"/>
<ellipse cx="448.645" cy="275.098" rx="12.6013" ry="13.4492" fill="#F87053" fill-opacity="0.7"/>
<g clip-path="url(#clip0_85_890)">
<path d="M465.99 46.405L463.261 48.5811C470.342 53.4984 470.585 61.8705 463.804 67.2781L466.654 69.2569C474.936 62.6524 474.638 52.421 465.99 46.405ZM455.075 55.1094L450.982 58.3736L455.256 61.3418C455.794 60.9135 456.217 60.4123 456.499 59.8671C456.782 59.3218 456.918 58.7431 456.902 58.1642C456.885 57.5852 456.715 57.0174 456.401 56.4932C456.088 55.969 455.637 55.4988 455.075 55.1094ZM460.532 50.7572L457.804 52.9333C459.692 54.2458 460.785 56.0771 460.841 58.0248C460.898 59.9726 459.914 61.8773 458.105 63.3206L460.955 65.2993C466.221 61.0995 466.032 54.5867 460.532 50.7572Z" fill="white"/>
</g>
<defs>
<filter id="filter0_i_85_890" x="0" y="0" width="500" height="313" filterUnits="userSpaceOnUse" color-interpolation-filters="sRGB">
<feFlood flood-opacity="0" result="BackgroundImageFix"/>
<feBlend mode="normal" in="SourceGraphic" in2="BackgroundImageFix" result="shape"/>
<feColorMatrix in="SourceAlpha" type="matrix" values="0 0 0 0 0 0 0 0 0 0 0 0 0 0 0 0 0 0 127 0" result="hardAlpha"/>
<feMorphology radius="100" operator="erode" in="SourceAlpha" result="effect1_innerShadow_85_890"/>
<feOffset/>
<feGaussianBlur stdDeviation="150"/>
<feComposite in2="hardAlpha" operator="arithmetic" k2="-1" k3="1"/>
<feColorMatrix type="matrix" values="0 0 0 0 0.233333 0 0 0 0 0.233333 0 0 0 0 0.233333 0 0 0 0.25 0"/>
<feBlend mode="normal" in2="shape" result="effect1_innerShadow_85_890"/>
</filter>
<clipPath id="clip0_85_890">
<rect width="24.9399" height="22.6089" fill="white" transform="matrix(0.0290457 0.999578 -0.999375 0.0353509 476.496 44.9937)"/>
</clipPath>
</defs>
</svg>
