<svg width="500" height="313" viewBox="0 0 500 313" fill="none" xmlns="http://www.w3.org/2000/svg">
<g filter="url(#filter0_i_85_872)">
<rect width="500" height="313" rx="20" fill="#645F5F"/>
</g>
<rect x="0.5" y="0.5" width="499" height="312" rx="19.5" stroke="#645F5F"/>
<path d="M27.7963 248.424V247.32L33.4123 239.544H35.1562V247.16H36.7563V248.424H35.1562V251H33.7163V248.424H27.7963ZM33.7803 241.064L29.4763 247.16H33.7803V241.064ZM45.5868 240.696H39.9708V244.344C40.2161 244.003 40.5788 243.725 41.0588 243.512C41.5388 243.288 42.0561 243.176 42.6108 243.176C43.4961 243.176 44.2161 243.363 44.7708 243.736C45.3254 244.099 45.7201 244.573 45.9548 245.16C46.2001 245.736 46.3228 246.349 46.3228 247C46.3228 247.768 46.1788 248.456 45.8908 249.064C45.6028 249.672 45.1601 250.152 44.5628 250.504C43.9761 250.856 43.2454 251.032 42.3708 251.032C41.2508 251.032 40.3441 250.744 39.6508 250.168C38.9574 249.592 38.5361 248.824 38.3868 247.864H39.8108C39.9494 248.472 40.2428 248.947 40.6908 249.288C41.1388 249.629 41.7041 249.8 42.3868 249.8C43.2294 249.8 43.8641 249.549 44.2908 249.048C44.7174 248.536 44.9308 247.864 44.9308 247.032C44.9308 246.2 44.7174 245.56 44.2908 245.112C43.8641 244.653 43.2348 244.424 42.4028 244.424C41.8374 244.424 41.3414 244.563 40.9148 244.84C40.4988 245.107 40.1948 245.475 40.0028 245.944H38.6268V239.416H45.5868V240.696ZM47.8736 240.76V239.432H50.8816V251H49.4096V240.76H47.8736ZM60.7586 240.696H55.1426V244.344C55.388 244.003 55.7506 243.725 56.2306 243.512C56.7106 243.288 57.228 243.176 57.7826 243.176C58.668 243.176 59.388 243.363 59.9426 243.736C60.4973 244.099 60.892 244.573 61.1266 245.16C61.372 245.736 61.4946 246.349 61.4946 247C61.4946 247.768 61.3506 248.456 61.0626 249.064C60.7746 249.672 60.332 250.152 59.7346 250.504C59.148 250.856 58.4173 251.032 57.5426 251.032C56.4226 251.032 55.516 250.744 54.8226 250.168C54.1293 249.592 53.708 248.824 53.5586 247.864H54.9826C55.1213 248.472 55.4146 248.947 55.8626 249.288C56.3106 249.629 56.876 249.8 57.5586 249.8C58.4013 249.8 59.036 249.549 59.4626 249.048C59.8893 248.536 60.1026 247.864 60.1026 247.032C60.1026 246.2 59.8893 245.56 59.4626 245.112C59.036 244.653 58.4066 244.424 57.5746 244.424C57.0093 244.424 56.5133 244.563 56.0866 244.84C55.6706 245.107 55.3666 245.475 55.1746 245.944H53.7986V239.416H60.7586V240.696ZM69.7495 244.52V245.752H63.3655V244.52H69.7495ZM72.066 249.832C73.4207 248.744 74.482 247.853 75.25 247.16C76.018 246.456 76.6633 245.725 77.186 244.968C77.7193 244.2 77.986 243.448 77.986 242.712C77.986 242.019 77.8153 241.475 77.474 241.08C77.1433 240.675 76.6047 240.472 75.858 240.472C75.1327 240.472 74.5673 240.701 74.162 241.16C73.7673 241.608 73.554 242.211 73.522 242.968H72.114C72.1567 241.773 72.5193 240.851 73.202 240.2C73.8847 239.549 74.7647 239.224 75.842 239.224C76.9407 239.224 77.81 239.528 78.45 240.136C79.1007 240.744 79.426 241.581 79.426 242.648C79.426 243.533 79.1593 244.397 78.626 245.24C78.1033 246.072 77.506 246.808 76.834 247.448C76.162 248.077 75.3033 248.813 74.258 249.656H79.762V250.872H72.066V249.832ZM81.0931 248.424V247.32L86.7091 239.544H88.4531V247.16H90.0531V248.424H88.4531V251H87.0131V248.424H81.0931ZM87.0771 241.064L82.7731 247.16H87.0771V241.064ZM98.8836 240.696H93.2676V244.344C93.513 244.003 93.8756 243.725 94.3556 243.512C94.8356 243.288 95.353 243.176 95.9076 243.176C96.793 243.176 97.513 243.363 98.0676 243.736C98.6223 244.099 99.017 244.573 99.2516 245.16C99.497 245.736 99.6196 246.349 99.6196 247C99.6196 247.768 99.4756 248.456 99.1876 249.064C98.8996 249.672 98.457 250.152 97.8596 250.504C97.273 250.856 96.5423 251.032 95.6676 251.032C94.5476 251.032 93.641 250.744 92.9476 250.168C92.2543 249.592 91.833 248.824 91.6836 247.864H93.1076C93.2463 248.472 93.5396 248.947 93.9876 249.288C94.4356 249.629 95.001 249.8 95.6836 249.8C96.5263 249.8 97.161 249.549 97.5876 249.048C98.0143 248.536 98.2276 247.864 98.2276 247.032C98.2276 246.2 98.0143 245.56 97.5876 245.112C97.161 244.653 96.5316 244.424 95.6996 244.424C95.1343 244.424 94.6383 244.563 94.2116 244.84C93.7956 245.107 93.4916 245.475 93.2996 245.944H91.9236V239.416H98.8836V240.696ZM101.203 248.424V247.32L106.819 239.544H108.562V247.16H110.163V248.424H108.562V251H107.123V248.424H101.203ZM107.187 241.064L102.883 247.16H107.187V241.064ZM117.937 244.52V245.752H111.553V244.52H117.937ZM120.398 242.344C120.472 241.363 120.851 240.595 121.534 240.04C122.216 239.485 123.102 239.208 124.19 239.208C124.915 239.208 125.539 239.341 126.062 239.608C126.595 239.864 126.995 240.216 127.262 240.664C127.539 241.112 127.678 241.619 127.678 242.184C127.678 242.845 127.486 243.416 127.102 243.896C126.728 244.376 126.238 244.685 125.63 244.824V244.904C126.323 245.075 126.872 245.411 127.278 245.912C127.683 246.413 127.885 247.069 127.885 247.88C127.885 248.488 127.747 249.037 127.47 249.528C127.192 250.008 126.776 250.387 126.222 250.664C125.667 250.941 125 251.08 124.222 251.08C123.091 251.08 122.163 250.787 121.438 250.2C120.712 249.603 120.307 248.76 120.222 247.672H121.63C121.704 248.312 121.966 248.835 122.414 249.24C122.862 249.645 123.459 249.848 124.206 249.848C124.952 249.848 125.518 249.656 125.902 249.272C126.296 248.877 126.494 248.371 126.494 247.752C126.494 246.952 126.227 246.376 125.694 246.024C125.16 245.672 124.355 245.496 123.278 245.496H122.91V244.28H123.294C124.275 244.269 125.016 244.109 125.518 243.8C126.019 243.48 126.27 242.989 126.27 242.328C126.27 241.763 126.083 241.309 125.71 240.968C125.347 240.627 124.824 240.456 124.141 240.456C123.48 240.456 122.947 240.627 122.542 240.968C122.136 241.309 121.896 241.768 121.822 242.344H120.398ZM129.675 249.832C131.03 248.744 132.091 247.853 132.859 247.16C133.627 246.456 134.273 245.725 134.795 244.968C135.329 244.2 135.595 243.448 135.595 242.712C135.595 242.019 135.425 241.475 135.083 241.08C134.753 240.675 134.214 240.472 133.467 240.472C132.742 240.472 132.177 240.701 131.771 241.16C131.377 241.608 131.163 242.211 131.131 242.968H129.723C129.766 241.773 130.129 240.851 130.811 240.2C131.494 239.549 132.374 239.224 133.451 239.224C134.55 239.224 135.419 239.528 136.059 240.136C136.71 240.744 137.035 241.581 137.035 242.648C137.035 243.533 136.769 244.397 136.235 245.24C135.713 246.072 135.115 246.808 134.443 247.448C133.771 248.077 132.913 248.813 131.867 249.656H137.371V250.872H129.675V249.832ZM138.671 240.76V239.432H141.679V251H140.207V240.76H138.671ZM144.18 245.096C144.18 243.261 144.478 241.832 145.076 240.808C145.673 239.773 146.718 239.256 148.212 239.256C149.694 239.256 150.734 239.773 151.332 240.808C151.929 241.832 152.227 243.261 152.227 245.096C152.227 246.963 151.929 248.413 151.332 249.448C150.734 250.483 149.694 251 148.212 251C146.718 251 145.673 250.483 145.076 249.448C144.478 248.413 144.18 246.963 144.18 245.096ZM150.788 245.096C150.788 244.168 150.724 243.384 150.596 242.744C150.478 242.093 150.228 241.571 149.844 241.176C149.47 240.781 148.926 240.584 148.212 240.584C147.486 240.584 146.932 240.781 146.548 241.176C146.174 241.571 145.924 242.093 145.796 242.744C145.678 243.384 145.62 244.168 145.62 245.096C145.62 246.056 145.678 246.861 145.796 247.512C145.924 248.163 146.174 248.685 146.548 249.08C146.932 249.475 147.486 249.672 148.212 249.672C148.926 249.672 149.47 249.475 149.844 249.08C150.228 248.685 150.478 248.163 150.596 247.512C150.724 246.861 150.788 246.056 150.788 245.096ZM160.546 244.52V245.752H154.162V244.52H160.546ZM163.007 242.344C163.082 241.363 163.46 240.595 164.143 240.04C164.826 239.485 165.711 239.208 166.799 239.208C167.524 239.208 168.148 239.341 168.671 239.608C169.204 239.864 169.604 240.216 169.871 240.664C170.148 241.112 170.287 241.619 170.287 242.184C170.287 242.845 170.095 243.416 169.711 243.896C169.338 244.376 168.847 244.685 168.239 244.824V244.904C168.932 245.075 169.482 245.411 169.887 245.912C170.292 246.413 170.495 247.069 170.495 247.88C170.495 248.488 170.356 249.037 170.079 249.528C169.802 250.008 169.386 250.387 168.831 250.664C168.276 250.941 167.61 251.08 166.831 251.08C165.7 251.08 164.772 250.787 164.047 250.2C163.322 249.603 162.916 248.76 162.831 247.672H164.239C164.314 248.312 164.575 248.835 165.023 249.24C165.471 249.645 166.068 249.848 166.815 249.848C167.562 249.848 168.127 249.656 168.511 249.272C168.906 248.877 169.103 248.371 169.103 247.752C169.103 246.952 168.836 246.376 168.303 246.024C167.77 245.672 166.964 245.496 165.887 245.496H165.519V244.28H165.903C166.884 244.269 167.626 244.109 168.127 243.8C168.628 243.48 168.879 242.989 168.879 242.328C168.879 241.763 168.692 241.309 168.319 240.968C167.956 240.627 167.434 240.456 166.751 240.456C166.09 240.456 165.556 240.627 165.151 240.968C164.746 241.309 164.506 241.768 164.431 242.344H163.007ZM172.285 249.832C173.639 248.744 174.701 247.853 175.469 247.16C176.237 246.456 176.882 245.725 177.405 244.968C177.938 244.2 178.205 243.448 178.205 242.712C178.205 242.019 178.034 241.475 177.693 241.08C177.362 240.675 176.823 240.472 176.077 240.472C175.351 240.472 174.786 240.701 174.381 241.16C173.986 241.608 173.773 242.211 173.741 242.968H172.333C172.375 241.773 172.738 240.851 173.421 240.2C174.103 239.549 174.983 239.224 176.061 239.224C177.159 239.224 178.029 239.528 178.669 240.136C179.319 240.744 179.645 241.581 179.645 242.648C179.645 243.533 179.378 244.397 178.845 245.24C178.322 246.072 177.725 246.808 177.053 247.448C176.381 248.077 175.522 248.813 174.477 249.656H179.981V250.872H172.285V249.832ZM189.04 240.696H183.424V244.344C183.669 244.003 184.032 243.725 184.512 243.512C184.992 243.288 185.509 243.176 186.064 243.176C186.949 243.176 187.669 243.363 188.224 243.736C188.779 244.099 189.173 244.573 189.408 245.16C189.653 245.736 189.776 246.349 189.776 247C189.776 247.768 189.632 248.456 189.344 249.064C189.056 249.672 188.613 250.152 188.016 250.504C187.429 250.856 186.699 251.032 185.824 251.032C184.704 251.032 183.797 250.744 183.104 250.168C182.411 249.592 181.989 248.824 181.84 247.864H183.264C183.403 248.472 183.696 248.947 184.144 249.288C184.592 249.629 185.157 249.8 185.84 249.8C186.683 249.8 187.317 249.549 187.744 249.048C188.171 248.536 188.384 247.864 188.384 247.032C188.384 246.2 188.171 245.56 187.744 245.112C187.317 244.653 186.688 244.424 185.856 244.424C185.291 244.424 184.795 244.563 184.368 244.84C183.952 245.107 183.648 245.475 183.456 245.944H182.08V239.416H189.04V240.696ZM191.327 240.76V239.432H194.335V251H192.863V240.76H191.327Z" fill="white"/>
<path d="M30.8871 274.848V283.088C30.8871 284.005 30.6044 284.741 30.0391 285.296C29.4737 285.84 28.7271 286.112 27.7991 286.112C26.8604 286.112 26.1084 285.835 25.5431 285.28C24.9777 284.715 24.6951 283.947 24.6951 282.976H26.1511C26.1617 283.52 26.3004 283.963 26.5671 284.304C26.8444 284.645 27.2551 284.816 27.7991 284.816C28.3431 284.816 28.7484 284.656 29.0151 284.336C29.2817 284.005 29.4151 283.589 29.4151 283.088V274.848H30.8871ZM37.5794 286.144C36.7581 286.144 36.0114 285.957 35.3394 285.584C34.6781 285.211 34.1554 284.683 33.7714 284C33.3981 283.307 33.2114 282.507 33.2114 281.6C33.2114 280.704 33.4034 279.915 33.7874 279.232C34.1821 278.539 34.7154 278.011 35.3874 277.648C36.0594 277.275 36.8114 277.088 37.6434 277.088C38.4754 277.088 39.2274 277.275 39.8994 277.648C40.5714 278.011 41.0994 278.533 41.4834 279.216C41.8781 279.899 42.0754 280.693 42.0754 281.6C42.0754 282.507 41.8728 283.307 41.4674 284C41.0728 284.683 40.5341 285.211 39.8514 285.584C39.1688 285.957 38.4114 286.144 37.5794 286.144ZM37.5794 284.864C38.1021 284.864 38.5928 284.741 39.0514 284.496C39.5101 284.251 39.8781 283.883 40.1554 283.392C40.4434 282.901 40.5874 282.304 40.5874 281.6C40.5874 280.896 40.4488 280.299 40.1714 279.808C39.8941 279.317 39.5314 278.955 39.0834 278.72C38.6354 278.475 38.1501 278.352 37.6274 278.352C37.0941 278.352 36.6034 278.475 36.1554 278.72C35.7181 278.955 35.3661 279.317 35.0994 279.808C34.8328 280.299 34.6994 280.896 34.6994 281.6C34.6994 282.315 34.8274 282.917 35.0834 283.408C35.3501 283.899 35.7021 284.267 36.1394 284.512C36.5768 284.747 37.0568 284.864 37.5794 284.864ZM48.3418 277.072C49.0031 277.072 49.6005 277.216 50.1338 277.504C50.6671 277.781 51.0831 278.203 51.3818 278.768C51.6911 279.333 51.8458 280.021 51.8458 280.832V286H50.4058V281.04C50.4058 280.165 50.1871 279.499 49.7498 279.04C49.3125 278.571 48.7151 278.336 47.9578 278.336C47.1898 278.336 46.5765 278.576 46.1178 279.056C45.6698 279.536 45.4458 280.235 45.4458 281.152V286H43.9898V274.16H45.4458V278.48C45.7338 278.032 46.1285 277.685 46.6298 277.44C47.1418 277.195 47.7125 277.072 48.3418 277.072ZM58.4962 277.072C59.5629 277.072 60.4269 277.397 61.0882 278.048C61.7495 278.688 62.0802 279.616 62.0802 280.832V286H60.6402V281.04C60.6402 280.165 60.4215 279.499 59.9842 279.04C59.5469 278.571 58.9495 278.336 58.1922 278.336C57.4242 278.336 56.8109 278.576 56.3522 279.056C55.9042 279.536 55.6802 280.235 55.6802 281.152V286H54.2242V277.232H55.6802V278.48C55.9682 278.032 56.3575 277.685 56.8482 277.44C57.3495 277.195 57.8989 277.072 58.4962 277.072ZM72.1962 274.848C73.4122 274.848 74.4629 275.077 75.3482 275.536C76.2442 275.984 76.9269 276.629 77.3962 277.472C77.8762 278.315 78.1162 279.307 78.1162 280.448C78.1162 281.589 77.8762 282.581 77.3962 283.424C76.9269 284.256 76.2442 284.896 75.3482 285.344C74.4629 285.781 73.4122 286 72.1962 286H68.7242V274.848H72.1962ZM72.1962 284.8C73.6362 284.8 74.7349 284.421 75.4922 283.664C76.2495 282.896 76.6282 281.824 76.6282 280.448C76.6282 279.061 76.2442 277.979 75.4762 277.2C74.7189 276.421 73.6255 276.032 72.1962 276.032H70.1802V284.8H72.1962ZM83.8607 286.144C83.0394 286.144 82.2927 285.957 81.6207 285.584C80.9594 285.211 80.4367 284.683 80.0527 284C79.6794 283.307 79.4927 282.507 79.4927 281.6C79.4927 280.704 79.6847 279.915 80.0687 279.232C80.4634 278.539 80.9967 278.011 81.6687 277.648C82.3407 277.275 83.0927 277.088 83.9247 277.088C84.7567 277.088 85.5087 277.275 86.1807 277.648C86.8527 278.011 87.3807 278.533 87.7647 279.216C88.1594 279.899 88.3567 280.693 88.3567 281.6C88.3567 282.507 88.154 283.307 87.7487 284C87.354 284.683 86.8154 285.211 86.1327 285.584C85.45 285.957 84.6927 286.144 83.8607 286.144ZM83.8607 284.864C84.3834 284.864 84.874 284.741 85.3327 284.496C85.7914 284.251 86.1594 283.883 86.4367 283.392C86.7247 282.901 86.8687 282.304 86.8687 281.6C86.8687 280.896 86.73 280.299 86.4527 279.808C86.1754 279.317 85.8127 278.955 85.3647 278.72C84.9167 278.475 84.4314 278.352 83.9087 278.352C83.3754 278.352 82.8847 278.475 82.4367 278.72C81.9994 278.955 81.6474 279.317 81.3807 279.808C81.114 280.299 80.9807 280.896 80.9807 281.6C80.9807 282.315 81.1087 282.917 81.3647 283.408C81.6314 283.899 81.9834 284.267 82.4207 284.512C82.858 284.747 83.338 284.864 83.8607 284.864ZM98.2711 281.28C98.2711 281.557 98.2551 281.851 98.2231 282.16H91.2151C91.2684 283.024 91.5617 283.701 92.0951 284.192C92.6391 284.672 93.2951 284.912 94.0631 284.912C94.6924 284.912 95.2151 284.768 95.6311 284.48C96.0577 284.181 96.3564 283.787 96.5271 283.296H98.0951C97.8604 284.139 97.3911 284.827 96.6871 285.36C95.9831 285.883 95.1084 286.144 94.0631 286.144C93.2311 286.144 92.4844 285.957 91.8231 285.584C91.1724 285.211 90.6604 284.683 90.2871 284C89.9137 283.307 89.7271 282.507 89.7271 281.6C89.7271 280.693 89.9084 279.899 90.2711 279.216C90.6337 278.533 91.1404 278.011 91.7911 277.648C92.4524 277.275 93.2097 277.088 94.0631 277.088C94.8951 277.088 95.6311 277.269 96.2711 277.632C96.9111 277.995 97.4017 278.496 97.7431 279.136C98.0951 279.765 98.2711 280.48 98.2711 281.28ZM96.7671 280.976C96.7671 280.421 96.6444 279.947 96.3991 279.552C96.1537 279.147 95.8177 278.843 95.3911 278.64C94.9751 278.427 94.5111 278.32 93.9991 278.32C93.2631 278.32 92.6337 278.555 92.1111 279.024C91.5991 279.493 91.3057 280.144 91.2311 280.976H96.7671Z" fill="white"/>
<ellipse cx="461.246" cy="275.098" rx="12.6013" ry="13.4492" fill="#FBDB35" fill-opacity="0.7"/>
<ellipse cx="448.645" cy="275.098" rx="12.6013" ry="13.4492" fill="#F87053" fill-opacity="0.7"/>
<g clip-path="url(#clip0_85_872)">
<path d="M465.99 46.405L463.261 48.5811C470.342 53.4984 470.585 61.8705 463.804 67.2781L466.654 69.2569C474.936 62.6524 474.638 52.421 465.99 46.405ZM455.075 55.1094L450.982 58.3736L455.256 61.3418C455.794 60.9135 456.217 60.4123 456.499 59.8671C456.782 59.3218 456.918 58.7431 456.902 58.1642C456.885 57.5852 456.715 57.0174 456.401 56.4932C456.088 55.969 455.637 55.4988 455.075 55.1094ZM460.532 50.7572L457.804 52.9333C459.692 54.2458 460.785 56.0771 460.841 58.0248C460.898 59.9726 459.914 61.8773 458.105 63.3206L460.955 65.2993C466.221 61.0995 466.032 54.5867 460.532 50.7572Z" fill="white"/>
</g>
<defs>
<filter id="filter0_i_85_872" x="0" y="0" width="500" height="313" filterUnits="userSpaceOnUse" color-interpolation-filters="sRGB">
<feFlood flood-opacity="0" result="BackgroundImageFix"/>
<feBlend mode="normal" in="SourceGraphic" in2="BackgroundImageFix" result="shape"/>
<feColorMatrix in="SourceAlpha" type="matrix" values="0 0 0 0 0 0 0 0 0 0 0 0 0 0 0 0 0 0 127 0" result="hardAlpha"/>
<feMorphology radius="100" operator="erode" in="SourceAlpha" result="effect1_innerShadow_85_872"/>
<feOffset/>
<feGaussianBlur stdDeviation="150"/>
<feComposite in2="hardAlpha" operator="arithmetic" k2="-1" k3="1"/>
<feColorMatrix type="matrix" values="0 0 0 0 0.233333 0 0 0 0 0.233333 0 0 0 0 0.233333 0 0 0 0.25 0"/>
<feBlend mode="normal" in2="shape" result="effect1_innerShadow_85_872"/>
</filter>
<clipPath id="clip0_85_872">
<rect width="24.9399" height="22.6089" fill="white" transform="matrix(0.0290457 0.999578 -0.999375 0.0353509 476.496 44.9937)"/>
</clipPath>
</defs>
</svg>
