<svg width="500" height="313" viewBox="0 0 500 313" fill="none" xmlns="http://www.w3.org/2000/svg">
<g filter="url(#filter0_i_85_881)">
<rect width="500" height="313" rx="20" fill="#645F5F"/>
</g>
<rect x="0.5" y="0.5" width="499" height="312" rx="19.5" stroke="#645F5F"/>
<path d="M30.2352 240.696H24.6192V244.344C24.8645 244.003 25.2272 243.725 25.7072 243.512C26.1872 243.288 26.7045 243.176 27.2592 243.176C28.1445 243.176 28.8645 243.363 29.4192 243.736C29.9739 244.099 30.3685 244.573 30.6032 245.16C30.8485 245.736 30.9712 246.349 30.9712 247C30.9712 247.768 30.8272 248.456 30.5392 249.064C30.2512 249.672 29.8085 250.152 29.2112 250.504C28.6245 250.856 27.8939 251.032 27.0192 251.032C25.8992 251.032 24.9925 250.744 24.2992 250.168C23.6059 249.592 23.1845 248.824 23.0352 247.864H24.4592C24.5979 248.472 24.8912 248.947 25.3392 249.288C25.7872 249.629 26.3525 249.8 27.0352 249.8C27.8779 249.8 28.5125 249.549 28.9392 249.048C29.3659 248.536 29.5792 247.864 29.5792 247.032C29.5792 246.2 29.3659 245.56 28.9392 245.112C28.5125 244.653 27.8832 244.424 27.0512 244.424C26.4859 244.424 25.9899 244.563 25.5632 244.84C25.1472 245.107 24.8432 245.475 24.6512 245.944H23.2752V239.416H30.2352V240.696ZM32.7301 249.832C34.0847 248.744 35.1461 247.853 35.9141 247.16C36.6821 246.456 37.3274 245.725 37.8501 244.968C38.3834 244.2 38.6501 243.448 38.6501 242.712C38.6501 242.019 38.4794 241.475 38.1381 241.08C37.8074 240.675 37.2687 240.472 36.5221 240.472C35.7967 240.472 35.2314 240.701 34.8261 241.16C34.4314 241.608 34.2181 242.211 34.1861 242.968H32.7781C32.8207 241.773 33.1834 240.851 33.8661 240.2C34.5487 239.549 35.4287 239.224 36.5061 239.224C37.6047 239.224 38.4741 239.528 39.1141 240.136C39.7647 240.744 40.0901 241.581 40.0901 242.648C40.0901 243.533 39.8234 244.397 39.2901 245.24C38.7674 246.072 38.1701 246.808 37.4981 247.448C36.8261 248.077 35.9674 248.813 34.9221 249.656H40.4261V250.872H32.7301V249.832ZM41.7252 240.76V239.432H44.7332V251H43.2612V240.76H41.7252ZM54.6102 240.696H48.9942V244.344C49.2395 244.003 49.6022 243.725 50.0822 243.512C50.5622 243.288 51.0795 243.176 51.6342 243.176C52.5195 243.176 53.2395 243.363 53.7942 243.736C54.3489 244.099 54.7435 244.573 54.9782 245.16C55.2235 245.736 55.3462 246.349 55.3462 247C55.3462 247.768 55.2022 248.456 54.9142 249.064C54.6262 249.672 54.1835 250.152 53.5862 250.504C52.9995 250.856 52.2689 251.032 51.3942 251.032C50.2742 251.032 49.3675 250.744 48.6742 250.168C47.9809 249.592 47.5595 248.824 47.4102 247.864H48.8342C48.9729 248.472 49.2662 248.947 49.7142 249.288C50.1622 249.629 50.7275 249.8 51.4102 249.8C52.2529 249.8 52.8875 249.549 53.3142 249.048C53.7409 248.536 53.9542 247.864 53.9542 247.032C53.9542 246.2 53.7409 245.56 53.3142 245.112C52.8875 244.653 52.2582 244.424 51.4262 244.424C50.8609 244.424 50.3649 244.563 49.9382 244.84C49.5222 245.107 49.2182 245.475 49.0262 245.944H47.6502V239.416H54.6102V240.696ZM63.6011 244.52V245.752H57.2171V244.52H63.6011ZM65.9176 249.832C67.2722 248.744 68.3336 247.853 69.1016 247.16C69.8696 246.456 70.5149 245.725 71.0376 244.968C71.5709 244.2 71.8376 243.448 71.8376 242.712C71.8376 242.019 71.6669 241.475 71.3256 241.08C70.9949 240.675 70.4562 240.472 69.7096 240.472C68.9842 240.472 68.4189 240.701 68.0136 241.16C67.6189 241.608 67.4056 242.211 67.3736 242.968H65.9656C66.0082 241.773 66.3709 240.851 67.0536 240.2C67.7362 239.549 68.6162 239.224 69.6936 239.224C70.7922 239.224 71.6616 239.528 72.3016 240.136C72.9522 240.744 73.2776 241.581 73.2776 242.648C73.2776 243.533 73.0109 244.397 72.4776 245.24C71.9549 246.072 71.3576 246.808 70.6856 247.448C70.0136 248.077 69.1549 248.813 68.1096 249.656H73.6136V250.872H65.9176V249.832ZM74.9447 248.424V247.32L80.5607 239.544H82.3047V247.16H83.9047V248.424H82.3047V251H80.8647V248.424H74.9447ZM80.9287 241.064L76.6247 247.16H80.9287V241.064ZM92.7352 240.696H87.1192V244.344C87.3645 244.003 87.7272 243.725 88.2072 243.512C88.6872 243.288 89.2045 243.176 89.7592 243.176C90.6445 243.176 91.3645 243.363 91.9192 243.736C92.4739 244.099 92.8685 244.573 93.1032 245.16C93.3485 245.736 93.4712 246.349 93.4712 247C93.4712 247.768 93.3272 248.456 93.0392 249.064C92.7512 249.672 92.3085 250.152 91.7112 250.504C91.1245 250.856 90.3939 251.032 89.5192 251.032C88.3992 251.032 87.4925 250.744 86.7992 250.168C86.1059 249.592 85.6845 248.824 85.5352 247.864H86.9592C87.0979 248.472 87.3912 248.947 87.8392 249.288C88.2872 249.629 88.8525 249.8 89.5352 249.8C90.3779 249.8 91.0125 249.549 91.4392 249.048C91.8659 248.536 92.0792 247.864 92.0792 247.032C92.0792 246.2 91.8659 245.56 91.4392 245.112C91.0125 244.653 90.3832 244.424 89.5512 244.424C88.9859 244.424 88.4899 244.563 88.0632 244.84C87.6472 245.107 87.3432 245.475 87.1512 245.944H85.7752V239.416H92.7352V240.696ZM95.0541 248.424V247.32L100.67 239.544H102.414V247.16H104.014V248.424H102.414V251H100.974V248.424H95.0541ZM101.038 241.064L96.7341 247.16H101.038V241.064ZM111.789 244.52V245.752H105.405V244.52H111.789ZM113.897 240.76V239.432H116.905V251H115.433V240.76H113.897ZM119.054 248.424V247.32L124.67 239.544H126.414V247.16H128.014V248.424H126.414V251H124.974V248.424H119.054ZM125.038 241.064L120.734 247.16H125.038V241.064ZM129.085 240.76V239.432H132.093V251H130.621V240.76H129.085ZM134.594 245.096C134.594 243.261 134.892 241.832 135.49 240.808C136.087 239.773 137.132 239.256 138.626 239.256C140.108 239.256 141.148 239.773 141.746 240.808C142.343 241.832 142.642 243.261 142.642 245.096C142.642 246.963 142.343 248.413 141.746 249.448C141.148 250.483 140.108 251 138.626 251C137.132 251 136.087 250.483 135.49 249.448C134.892 248.413 134.594 246.963 134.594 245.096ZM141.202 245.096C141.202 244.168 141.138 243.384 141.01 242.744C140.892 242.093 140.642 241.571 140.258 241.176C139.884 240.781 139.34 240.584 138.626 240.584C137.9 240.584 137.346 240.781 136.962 241.176C136.588 241.571 136.338 242.093 136.21 242.744C136.092 243.384 136.034 244.168 136.034 245.096C136.034 246.056 136.092 246.861 136.21 247.512C136.338 248.163 136.588 248.685 136.962 249.08C137.346 249.475 137.9 249.672 138.626 249.672C139.34 249.672 139.884 249.475 140.258 249.08C140.642 248.685 140.892 248.163 141.01 247.512C141.138 246.861 141.202 246.056 141.202 245.096ZM150.96 244.52V245.752H144.576V244.52H150.96ZM155.325 247.896C155.432 248.504 155.677 248.973 156.061 249.304C156.456 249.635 156.984 249.8 157.645 249.8C158.53 249.8 159.181 249.453 159.597 248.76C160.024 248.067 160.226 246.899 160.205 245.256C159.981 245.736 159.608 246.115 159.085 246.392C158.562 246.659 157.981 246.792 157.341 246.792C156.626 246.792 155.986 246.648 155.421 246.36C154.866 246.061 154.429 245.629 154.109 245.064C153.789 244.499 153.629 243.816 153.629 243.016C153.629 241.875 153.96 240.957 154.621 240.264C155.282 239.56 156.221 239.208 157.437 239.208C158.93 239.208 159.976 239.693 160.573 240.664C161.181 241.635 161.485 243.08 161.485 245C161.485 246.344 161.362 247.453 161.117 248.328C160.882 249.203 160.477 249.869 159.901 250.328C159.336 250.787 158.557 251.016 157.565 251.016C156.477 251.016 155.629 250.723 155.021 250.136C154.413 249.549 154.066 248.803 153.981 247.896H155.325ZM157.581 245.56C158.296 245.56 158.882 245.341 159.341 244.904C159.8 244.456 160.029 243.853 160.029 243.096C160.029 242.296 159.805 241.651 159.357 241.16C158.909 240.669 158.28 240.424 157.469 240.424C156.722 240.424 156.125 240.659 155.677 241.128C155.24 241.597 155.021 242.216 155.021 242.984C155.021 243.763 155.24 244.387 155.677 244.856C156.114 245.325 156.749 245.56 157.581 245.56ZM163.499 242.344C163.574 241.363 163.952 240.595 164.635 240.04C165.318 239.485 166.203 239.208 167.291 239.208C168.016 239.208 168.64 239.341 169.163 239.608C169.696 239.864 170.096 240.216 170.363 240.664C170.64 241.112 170.779 241.619 170.779 242.184C170.779 242.845 170.587 243.416 170.203 243.896C169.83 244.376 169.339 244.685 168.731 244.824V244.904C169.424 245.075 169.974 245.411 170.379 245.912C170.784 246.413 170.987 247.069 170.987 247.88C170.987 248.488 170.848 249.037 170.571 249.528C170.294 250.008 169.878 250.387 169.323 250.664C168.768 250.941 168.102 251.08 167.323 251.08C166.192 251.08 165.264 250.787 164.539 250.2C163.814 249.603 163.408 248.76 163.323 247.672H164.731C164.806 248.312 165.067 248.835 165.515 249.24C165.963 249.645 166.56 249.848 167.307 249.848C168.054 249.848 168.619 249.656 169.003 249.272C169.398 248.877 169.595 248.371 169.595 247.752C169.595 246.952 169.328 246.376 168.795 246.024C168.262 245.672 167.456 245.496 166.379 245.496H166.011V244.28H166.395C167.376 244.269 168.118 244.109 168.619 243.8C169.12 243.48 169.371 242.989 169.371 242.328C169.371 241.763 169.184 241.309 168.811 240.968C168.448 240.627 167.926 240.456 167.243 240.456C166.582 240.456 166.048 240.627 165.643 240.968C165.238 241.309 164.998 241.768 164.923 242.344H163.499ZM180.329 240.696H174.713V244.344C174.958 244.003 175.321 243.725 175.801 243.512C176.281 243.288 176.798 243.176 177.353 243.176C178.238 243.176 178.958 243.363 179.513 243.736C180.068 244.099 180.462 244.573 180.697 245.16C180.942 245.736 181.065 246.349 181.065 247C181.065 247.768 180.921 248.456 180.633 249.064C180.345 249.672 179.902 250.152 179.305 250.504C178.718 250.856 177.988 251.032 177.113 251.032C175.993 251.032 175.086 250.744 174.393 250.168C173.7 249.592 173.278 248.824 173.129 247.864H174.553C174.692 248.472 174.985 248.947 175.433 249.288C175.881 249.629 176.446 249.8 177.129 249.8C177.972 249.8 178.606 249.549 179.033 249.048C179.46 248.536 179.673 247.864 179.673 247.032C179.673 246.2 179.46 245.56 179.033 245.112C178.606 244.653 177.977 244.424 177.145 244.424C176.58 244.424 176.084 244.563 175.657 244.84C175.241 245.107 174.937 245.475 174.745 245.944H173.369V239.416H180.329V240.696ZM182.616 240.76V239.432H185.624V251H184.152V240.76H182.616Z" fill="white"/>
<path d="M29.3694 274.848V276.032H26.3294V286H24.8734V276.032H21.8174V274.848H29.3694ZM39.1617 281.28C39.1617 281.557 39.1457 281.851 39.1137 282.16H32.1057C32.159 283.024 32.4524 283.701 32.9857 284.192C33.5297 284.672 34.1857 284.912 34.9537 284.912C35.583 284.912 36.1057 284.768 36.5217 284.48C36.9484 284.181 37.247 283.787 37.4177 283.296H38.9857C38.751 284.139 38.2817 284.827 37.5777 285.36C36.8737 285.883 35.999 286.144 34.9537 286.144C34.1217 286.144 33.375 285.957 32.7137 285.584C32.063 285.211 31.551 284.683 31.1777 284C30.8044 283.307 30.6177 282.507 30.6177 281.6C30.6177 280.693 30.799 279.899 31.1617 279.216C31.5244 278.533 32.031 278.011 32.6817 277.648C33.343 277.275 34.1004 277.088 34.9537 277.088C35.7857 277.088 36.5217 277.269 37.1617 277.632C37.8017 277.995 38.2924 278.496 38.6337 279.136C38.9857 279.765 39.1617 280.48 39.1617 281.28ZM37.6577 280.976C37.6577 280.421 37.535 279.947 37.2897 279.552C37.0444 279.147 36.7084 278.843 36.2817 278.64C35.8657 278.427 35.4017 278.32 34.8897 278.32C34.1537 278.32 33.5244 278.555 33.0017 279.024C32.4897 279.493 32.1964 280.144 32.1217 280.976H37.6577ZM40.5396 281.584C40.5396 280.688 40.7209 279.904 41.0836 279.232C41.4462 278.549 41.9422 278.021 42.5716 277.648C43.2116 277.275 43.9262 277.088 44.7156 277.088C45.3982 277.088 46.0329 277.248 46.6196 277.568C47.2062 277.877 47.6542 278.288 47.9636 278.8V274.16H49.4356V286H47.9636V284.352C47.6756 284.875 47.2489 285.307 46.6836 285.648C46.1182 285.979 45.4569 286.144 44.6996 286.144C43.9209 286.144 43.2116 285.952 42.5716 285.568C41.9422 285.184 41.4462 284.645 41.0836 283.952C40.7209 283.259 40.5396 282.469 40.5396 281.584ZM47.9636 281.6C47.9636 280.939 47.8302 280.363 47.5636 279.872C47.2969 279.381 46.9342 279.008 46.4756 278.752C46.0276 278.485 45.5316 278.352 44.9876 278.352C44.4436 278.352 43.9476 278.48 43.4996 278.736C43.0516 278.992 42.6942 279.365 42.4276 279.856C42.1609 280.347 42.0276 280.923 42.0276 281.584C42.0276 282.256 42.1609 282.843 42.4276 283.344C42.6942 283.835 43.0516 284.213 43.4996 284.48C43.9476 284.736 44.4436 284.864 44.9876 284.864C45.5316 284.864 46.0276 284.736 46.4756 284.48C46.9342 284.213 47.2969 283.835 47.5636 283.344C47.8302 282.843 47.9636 282.261 47.9636 281.6ZM55.6177 280.416C55.6177 279.328 55.863 278.352 56.3537 277.488C56.8444 276.613 57.511 275.931 58.3537 275.44C59.207 274.949 60.151 274.704 61.1857 274.704C62.4017 274.704 63.463 274.997 64.3697 275.584C65.2764 276.171 65.9377 277.003 66.3537 278.08H64.6097C64.3004 277.408 63.8524 276.891 63.2657 276.528C62.6897 276.165 61.9964 275.984 61.1857 275.984C60.407 275.984 59.7084 276.165 59.0897 276.528C58.471 276.891 57.9857 277.408 57.6337 278.08C57.2817 278.741 57.1057 279.52 57.1057 280.416C57.1057 281.301 57.2817 282.08 57.6337 282.752C57.9857 283.413 58.471 283.925 59.0897 284.288C59.7084 284.651 60.407 284.832 61.1857 284.832C61.9964 284.832 62.6897 284.656 63.2657 284.304C63.8524 283.941 64.3004 283.424 64.6097 282.752H66.3537C65.9377 283.819 65.2764 284.645 64.3697 285.232C63.463 285.808 62.4017 286.096 61.1857 286.096C60.151 286.096 59.207 285.856 58.3537 285.376C57.511 284.885 56.8444 284.208 56.3537 283.344C55.863 282.48 55.6177 281.504 55.6177 280.416ZM69.2731 275.808C68.9957 275.808 68.7611 275.712 68.5691 275.52C68.3771 275.328 68.2811 275.093 68.2811 274.816C68.2811 274.539 68.3771 274.304 68.5691 274.112C68.7611 273.92 68.9957 273.824 69.2731 273.824C69.5397 273.824 69.7637 273.92 69.9451 274.112C70.1371 274.304 70.2331 274.539 70.2331 274.816C70.2331 275.093 70.1371 275.328 69.9451 275.52C69.7637 275.712 69.5397 275.808 69.2731 275.808ZM69.9771 277.232V286H68.5211V277.232H69.9771ZM73.9146 278.656C74.1706 278.155 74.5332 277.765 75.0026 277.488C75.4826 277.211 76.0639 277.072 76.7466 277.072V278.576H76.3626C74.7306 278.576 73.9146 279.461 73.9146 281.232V286H72.4586V277.232H73.9146V278.656ZM82.2513 286.144C81.43 286.144 80.6833 285.957 80.0113 285.584C79.35 285.211 78.8273 284.683 78.4433 284C78.07 283.307 77.8833 282.507 77.8833 281.6C77.8833 280.704 78.0753 279.915 78.4593 279.232C78.854 278.539 79.3873 278.011 80.0593 277.648C80.7313 277.275 81.4833 277.088 82.3153 277.088C83.1473 277.088 83.8993 277.275 84.5713 277.648C85.2433 278.011 85.7713 278.533 86.1553 279.216C86.55 279.899 86.7473 280.693 86.7473 281.6C86.7473 282.507 86.5446 283.307 86.1393 284C85.7446 284.683 85.206 285.211 84.5233 285.584C83.8406 285.957 83.0833 286.144 82.2513 286.144ZM82.2513 284.864C82.774 284.864 83.2646 284.741 83.7233 284.496C84.182 284.251 84.55 283.883 84.8273 283.392C85.1153 282.901 85.2593 282.304 85.2593 281.6C85.2593 280.896 85.1206 280.299 84.8433 279.808C84.566 279.317 84.2033 278.955 83.7553 278.72C83.3073 278.475 82.822 278.352 82.2993 278.352C81.766 278.352 81.2753 278.475 80.8273 278.72C80.39 278.955 80.038 279.317 79.7713 279.808C79.5046 280.299 79.3713 280.896 79.3713 281.6C79.3713 282.315 79.4993 282.917 79.7553 283.408C80.022 283.899 80.374 284.267 80.8113 284.512C81.2486 284.747 81.7286 284.864 82.2513 284.864ZM99.2057 277.072C99.8884 277.072 100.496 277.216 101.03 277.504C101.563 277.781 101.984 278.203 102.294 278.768C102.603 279.333 102.758 280.021 102.758 280.832V286H101.318V281.04C101.318 280.165 101.099 279.499 100.662 279.04C100.235 278.571 99.6537 278.336 98.9177 278.336C98.1604 278.336 97.5577 278.581 97.1097 279.072C96.6617 279.552 96.4377 280.251 96.4377 281.168V286H94.9977V281.04C94.9977 280.165 94.779 279.499 94.3417 279.04C93.915 278.571 93.3337 278.336 92.5977 278.336C91.8404 278.336 91.2377 278.581 90.7897 279.072C90.3417 279.552 90.1177 280.251 90.1177 281.168V286H88.6617V277.232H90.1177V278.496C90.4057 278.037 90.7897 277.685 91.2697 277.44C91.7604 277.195 92.299 277.072 92.8857 277.072C93.6217 277.072 94.2724 277.237 94.8377 277.568C95.403 277.899 95.8244 278.384 96.1017 279.024C96.347 278.405 96.7524 277.925 97.3177 277.584C97.883 277.243 98.5124 277.072 99.2057 277.072ZM104.602 281.584C104.602 280.688 104.783 279.904 105.146 279.232C105.509 278.549 106.005 278.021 106.634 277.648C107.274 277.275 107.983 277.088 108.762 277.088C109.53 277.088 110.197 277.253 110.762 277.584C111.327 277.915 111.749 278.331 112.026 278.832V277.232H113.498V286H112.026V284.368C111.738 284.88 111.306 285.307 110.73 285.648C110.165 285.979 109.503 286.144 108.746 286.144C107.967 286.144 107.263 285.952 106.634 285.568C106.005 285.184 105.509 284.645 105.146 283.952C104.783 283.259 104.602 282.469 104.602 281.584ZM112.026 281.6C112.026 280.939 111.893 280.363 111.626 279.872C111.359 279.381 110.997 279.008 110.538 278.752C110.09 278.485 109.594 278.352 109.05 278.352C108.506 278.352 108.01 278.48 107.562 278.736C107.114 278.992 106.757 279.365 106.49 279.856C106.223 280.347 106.09 280.923 106.09 281.584C106.09 282.256 106.223 282.843 106.49 283.344C106.757 283.835 107.114 284.213 107.562 284.48C108.01 284.736 108.506 284.864 109.05 284.864C109.594 284.864 110.09 284.736 110.538 284.48C110.997 284.213 111.359 283.835 111.626 283.344C111.893 282.843 112.026 282.261 112.026 281.6Z" fill="white"/>
<ellipse cx="461.246" cy="275.098" rx="12.6013" ry="13.4492" fill="#FBDB35" fill-opacity="0.7"/>
<ellipse cx="448.645" cy="275.098" rx="12.6013" ry="13.4492" fill="#F87053" fill-opacity="0.7"/>
<g clip-path="url(#clip0_85_881)">
<path d="M465.99 46.4051L463.261 48.5812C470.342 53.4985 470.585 61.8706 463.804 67.2783L466.654 69.257C474.936 62.6526 474.638 52.4211 465.99 46.4051ZM455.075 55.1095L450.982 58.3737L455.256 61.3419C455.794 60.9136 456.217 60.4125 456.499 59.8672C456.782 59.3219 456.918 58.7432 456.902 58.1643C456.885 57.5854 456.715 57.0175 456.401 56.4933C456.088 55.9692 455.637 55.4989 455.075 55.1095ZM460.532 50.7573L457.804 52.9334C459.692 54.2459 460.785 56.0772 460.841 58.025C460.898 59.9727 459.914 61.8775 458.105 63.3207L460.955 65.2995C466.221 61.0996 466.032 54.5868 460.532 50.7573Z" fill="white"/>
</g>
<defs>
<filter id="filter0_i_85_881" x="0" y="0" width="500" height="313" filterUnits="userSpaceOnUse" color-interpolation-filters="sRGB">
<feFlood flood-opacity="0" result="BackgroundImageFix"/>
<feBlend mode="normal" in="SourceGraphic" in2="BackgroundImageFix" result="shape"/>
<feColorMatrix in="SourceAlpha" type="matrix" values="0 0 0 0 0 0 0 0 0 0 0 0 0 0 0 0 0 0 127 0" result="hardAlpha"/>
<feMorphology radius="100" operator="erode" in="SourceAlpha" result="effect1_innerShadow_85_881"/>
<feOffset/>
<feGaussianBlur stdDeviation="150"/>
<feComposite in2="hardAlpha" operator="arithmetic" k2="-1" k3="1"/>
<feColorMatrix type="matrix" values="0 0 0 0 0.233333 0 0 0 0 0.233333 0 0 0 0 0.233333 0 0 0 0.25 0"/>
<feBlend mode="normal" in2="shape" result="effect1_innerShadow_85_881"/>
</filter>
<clipPath id="clip0_85_881">
<rect width="24.9399" height="22.6089" fill="white" transform="matrix(0.0290457 0.999578 -0.999375 0.0353509 476.496 44.9937)"/>
</clipPath>
</defs>
</svg>
